<svg width="469" height="382" viewBox="0 0 469 382" fill="none" xmlns="http://www.w3.org/2000/svg">
<path d="M251.059 95.3215C224.902 94.3684 199.99 85.4938 176.201 75.7807C152.412 66.0676 128.846 55.3144 103.336 50.1691C86.9148 46.8589 68.1377 46.3883 54.9056 55.6426C42.1545 64.5647 38.0402 79.9214 35.8416 94.1825C34.1765 104.916 33.1984 116.211 37.7573 126.256C40.9219 133.233 46.5437 139.094 50.4316 145.773C63.9587 169.02 54.3964 197.689 39.7377 220.385C32.867 231.032 24.889 241.188 19.5824 252.523C14.2759 263.857 11.8105 276.845 16.4421 288.409C21.0414 299.878 32.0062 308.476 43.8843 314.511C68.0084 326.806 96.4246 330.33 124.154 332.307C185.513 336.721 247.203 334.811 308.728 332.897C331.494 332.189 354.365 331.469 376.763 327.755C389.203 325.699 402.043 322.436 411.072 314.562C422.538 304.568 425.379 287.641 417.696 275.109C404.812 254.085 369.197 248.86 360.181 226.298C355.226 213.88 360.314 200.046 367.52 188.529C382.971 163.819 408.877 142.143 410.239 113.897C411.177 94.5187 398.725 75.0767 379.471 65.8975C359.288 56.2754 331.304 57.4856 316.423 73.4117C301.097 89.8757 274.152 96.1679 251.059 95.3215Z" fill="#3F3D56"/>
<g clip-path="url(#clip0_118_650)">
<path d="M443.855 160.48C420.874 189.205 377.512 195.783 341.633 185.778C329.893 182.425 318.567 177.816 307.861 172.036C301.642 168.735 295.573 165.114 289.626 161.256C288.163 160.31 286.701 159.351 285.253 158.371C284.266 157.712 283.282 157.045 282.302 156.369C270.023 147.925 258.225 138.662 246.626 129.452C217.67 106.461 187.92 82.7621 152.343 71.7926C145.014 69.5337 135.532 68.477 130.999 74.5459C127.067 79.8149 129.467 87.275 132.795 92.9271C145.138 113.863 167.543 127.082 189.968 137.247C212.393 147.411 236.147 155.647 255.642 170.509C275.136 185.371 290.018 208.992 286.031 232.837C282.594 253.385 265.431 270.079 245.475 277.355C225.52 284.626 203.264 283.613 182.52 278.891C161.776 274.165 142.083 265.92 122.063 258.814C109.993 254.524 94.2129 251.557 86.2037 261.373C79.4397 269.667 83.3276 282.75 91.5646 289.653C99.8016 296.555 110.95 298.867 121.587 300.942C154.615 307.389 187.642 313.834 220.67 320.278C230.801 322.251 241.171 324.316 249.998 329.571C258.825 334.82 265.947 343.992 265.694 354.089C265.441 364.04 257.987 372.833 248.853 377.24C239.723 381.641 229.18 382.32 219.009 381.845C180.893 380.061 71.6191 320.87 45.4102 313.303C28.5691 308.446 10.156 301.311 3.05441 285.615C-5.78771 266.075 8.76247 242.434 28.6236 233.51C48.4799 224.582 71.5 226.559 93.1416 229.565C114.783 232.57 137.139 236.395 158.205 230.684C179.271 224.974 198.572 206.36 196.494 185.09C194.684 166.583 177.63 152.637 159.683 146.49C145.634 141.677 130.687 140.368 115.929 138.201C111.832 137.605 107.751 136.936 103.71 136.112C93.3588 133.993 83.2621 130.825 73.583 126.66C63.4259 122.299 53.7765 116.886 44.8003 110.513C37.6409 105.438 30.9503 99.7596 24.8053 93.5427C23.8679 92.5926 22.9405 91.6216 22.023 90.6294C21.1503 89.6794 20.2873 88.7099 19.4444 87.721C8.47484 74.9094 0.371489 59.1313 2.80165 42.8732C5.22647 26.6588 18.155 13.1589 33.5481 6.67309C42.4447 2.92607 52.0406 1.24888 61.7555 1.00651C68.859 0.867744 75.9605 1.36751 82.9704 2.4995C115.408 7.56985 145.133 22.9748 173.207 39.6546C201.275 56.3343 228.629 74.6429 259.143 86.5334C289.656 98.4289 324.39 103.465 355.345 92.709C386.299 81.9575 411.729 52.6213 410.217 20.5462C430.748 37.8271 448.194 59.5482 455.92 84.929C463.647 110.31 460.542 139.617 443.855 160.48Z" fill="#263A41"/>
<path d="M295.928 127.331C297.922 127.331 299.538 125.752 299.538 123.804C299.538 121.855 297.922 120.276 295.928 120.276C293.935 120.276 292.319 121.855 292.319 123.804C292.319 125.752 293.935 127.331 295.928 127.331Z" fill="#1D2C33"/>
<path d="M423.378 82.7231C426.459 82.7231 428.958 80.2811 428.958 77.2688C428.958 74.2565 426.459 71.8146 423.378 71.8146C420.296 71.8146 417.798 74.2565 417.798 77.2688C417.798 80.2811 420.296 82.7231 423.378 82.7231Z" fill="#FF6584"/>
<path d="M57.3954 250.881C58.5341 250.881 59.4571 249.979 59.4571 248.866C59.4571 247.753 58.5341 246.85 57.3954 246.85C56.2567 246.85 55.3337 247.753 55.3337 248.866C55.3337 249.979 56.2567 250.881 57.3954 250.881Z" fill="#FF6584"/>
<path d="M116.573 133.015C116.575 134.763 116.358 136.505 115.929 138.201C111.833 137.605 107.751 136.936 103.71 136.112C93.3588 133.993 83.2622 130.825 73.583 126.66C75.1395 121.748 78.4464 117.544 82.9034 114.811C87.3603 112.079 92.6719 110.999 97.8738 111.768C103.076 112.537 107.823 115.104 111.254 119.002C114.685 122.901 116.573 127.872 116.573 133.015Z" fill="#FF6584"/>
<path d="M387.672 114.716C388.837 114.716 389.781 113.793 389.781 112.655C389.781 111.516 388.837 110.594 387.672 110.594C386.507 110.594 385.563 111.516 385.563 112.655C385.563 113.793 386.507 114.716 387.672 114.716Z" fill="#F0F0F0"/>
<path d="M194.763 341.572C195.927 341.572 196.871 340.65 196.871 339.511C196.871 338.373 195.927 337.45 194.763 337.45C193.598 337.45 192.654 338.373 192.654 339.511C192.654 340.65 193.598 341.572 194.763 341.572Z" fill="#F0F0F0"/>
<path d="M225.013 370.172C226.178 370.172 227.122 369.249 227.122 368.111C227.122 366.973 226.178 366.05 225.013 366.05C223.849 366.05 222.905 366.973 222.905 368.111C222.905 369.249 223.849 370.172 225.013 370.172Z" fill="#F0F0F0"/>
<path d="M38.0549 288.736C39.2194 288.736 40.1635 287.813 40.1635 286.675C40.1635 285.537 39.2194 284.614 38.0549 284.614C36.8903 284.614 35.9463 285.537 35.9463 286.675C35.9463 287.813 36.8903 288.736 38.0549 288.736Z" fill="#F0F0F0"/>
<path d="M141.7 250.442C142.865 250.442 143.809 249.519 143.809 248.381C143.809 247.243 142.865 246.32 141.7 246.32C140.536 246.32 139.592 247.243 139.592 248.381C139.592 249.519 140.536 250.442 141.7 250.442Z" fill="#F0F0F0"/>
<path d="M131.286 45.8831C132.451 45.8831 133.395 44.9603 133.395 43.822C133.395 42.6837 132.451 41.7609 131.286 41.7609C130.122 41.7609 129.178 42.6837 129.178 43.822C129.178 44.9603 130.122 45.8831 131.286 45.8831Z" fill="#F0F0F0"/>
<path d="M258.735 207.3C259.9 207.3 260.844 206.378 260.844 205.239C260.844 204.101 259.9 203.178 258.735 203.178C257.571 203.178 256.627 204.101 256.627 205.239C256.627 206.378 257.571 207.3 258.735 207.3Z" fill="#F0F0F0"/>
<path d="M274.604 243.171C275.769 243.171 276.713 242.248 276.713 241.11C276.713 239.972 275.769 239.049 274.604 239.049C273.44 239.049 272.496 239.972 272.496 241.11C272.496 242.248 273.44 243.171 274.604 243.171Z" fill="#F0F0F0"/>
<path d="M84.5376 50.4011C84.5531 60.8077 82.0375 71.0689 77.1982 80.3384C76.5584 81.5599 75.8807 82.7605 75.1649 83.94C68.0782 95.6379 57.4755 104.917 44.8003 110.513C37.6409 105.438 30.9503 99.7595 24.8053 93.5426C23.8679 92.5925 22.9405 91.6214 22.023 90.6293C21.1503 89.6793 20.2873 88.7098 19.4444 87.7209C8.47483 74.9093 0.37149 59.1312 2.80165 42.8731C5.22648 26.6587 18.155 13.1587 33.5481 6.67295C42.4447 2.92594 52.0406 1.24878 61.7554 1.00641C69.3515 7.56347 75.3397 15.7081 79.276 24.8361C79.7719 25.9849 80.2281 27.1483 80.6596 28.3262C83.2333 35.4138 84.5449 42.8802 84.5376 50.4011Z" fill="#1D2C33"/>
<path d="M115.284 53.7942C115.284 63.8913 105.197 73.2564 86.8784 80.1736C83.2135 81.56 79.2908 82.8154 75.1649 83.94C59.7222 88.1475 41.3437 90.4791 22.023 90.6294C21.1503 89.6793 20.2873 88.7098 19.4444 87.721C19.6527 87.7258 19.8609 87.7258 20.0692 87.7258C41.0512 87.7258 60.9571 85.1276 77.1982 80.3384C80.1984 79.4514 83.0748 78.4916 85.8071 77.4591C102.648 71.1042 112.309 62.4759 112.309 53.7942C112.309 45.1126 102.648 36.4891 85.8071 30.1294C84.1409 29.4992 82.4251 28.8982 80.6596 28.3262C80.2282 27.1483 79.772 25.9849 79.2761 24.8361C81.9142 25.6407 84.4483 26.5003 86.8784 27.4149C105.197 34.332 115.284 43.702 115.284 53.7942Z" fill="#E4E4E4"/>
<path d="M23.1776 17.7684C24.3421 17.7684 25.2862 16.8456 25.2862 15.7073C25.2862 14.569 24.3421 13.6462 23.1776 13.6462C22.013 13.6462 21.069 14.569 21.069 15.7073C21.069 16.8456 22.013 17.7684 23.1776 17.7684Z" fill="#F0F0F0"/>
<path d="M67.3136 30.8562C68.4782 30.8562 69.4222 29.9335 69.4222 28.7952C69.4222 27.6569 68.4782 26.7341 67.3136 26.7341C66.1491 26.7341 65.205 27.6569 65.205 28.7952C65.205 29.9335 66.1491 30.8562 67.3136 30.8562Z" fill="#F0F0F0"/>
<path d="M44.5017 69.6819C55.8264 69.6819 65.0069 60.7083 65.0069 49.6388C65.0069 38.5693 55.8264 29.5957 44.5017 29.5957C33.1771 29.5957 23.9966 38.5693 23.9966 49.6388C23.9966 60.7083 33.1771 69.6819 44.5017 69.6819Z" fill="#F0F0F0"/>
<path opacity="0.3" d="M423.18 155.72C418.578 157.048 408.432 158.027 397.274 158.628C386.121 159.224 373.887 159.486 361.806 159.738C340.661 160.184 319.517 160.632 298.374 161.081C295.468 161.144 292.552 161.202 289.626 161.255C288.163 160.31 286.701 159.35 285.253 158.371C287.846 158.386 290.44 158.371 293.014 158.323C304.008 158.11 313.316 157.271 323.919 156.873C340.234 156.258 357.849 156.743 374.854 156.99C391.858 157.242 411.234 157.15 423.18 155.72Z" fill="#F0F0F0"/>
<path opacity="0.3" d="M98.6417 308.524L31.2371 253.637L96.7196 310.722C96.8464 310.931 97.0223 311.107 97.2327 311.236C97.4431 311.365 97.682 311.444 97.9295 311.464C98.1769 311.485 98.4259 311.448 98.6558 311.356C98.8856 311.264 99.0897 311.119 99.2511 310.935C99.4125 310.75 99.5265 310.531 99.5837 310.294C99.641 310.058 99.6398 309.812 99.5802 309.576C99.5206 309.341 99.4044 309.122 99.2412 308.939C99.078 308.756 98.8725 308.614 98.6417 308.524H98.6417Z" fill="#F0F0F0"/>
<path d="M47.4772 100.658C48.6417 100.658 49.5858 99.7355 49.5858 98.5972C49.5858 97.4589 48.6417 96.5361 47.4772 96.5361C46.3126 96.5361 45.3686 97.4589 45.3686 98.5972C45.3686 99.7355 46.3126 100.658 47.4772 100.658Z" fill="#F0F0F0"/>
<path d="M197.349 329.132L206.07 329.131L210.22 296.248L197.347 296.249L197.349 329.132Z" fill="#FFB6B6"/>
<path d="M195.124 326.348L197.579 326.348L207.163 322.538L212.3 326.348H212.301C215.204 326.348 217.988 327.475 220.041 329.482C222.094 331.488 223.247 334.209 223.247 337.047V337.395L195.125 337.396L195.124 326.348Z" fill="#0E1F26"/>
<path d="M132.033 329.132L123.311 329.131L119.162 296.248L132.035 296.249L132.033 329.132Z" fill="#FFB6B6"/>
<path d="M134.257 337.396L106.135 337.395V337.047C106.135 334.209 107.289 331.488 109.341 329.482C111.394 327.475 114.178 326.348 117.081 326.348H117.082L122.219 322.538L131.803 326.348L134.258 326.348L134.257 337.396Z" fill="#0E1F26"/>
<path d="M163.284 77.1241L154.453 83.6972L130.994 89.7699C130.994 89.7699 139.4 147.434 135.432 151.312C131.465 155.19 135.043 155.294 134.246 160.332C133.449 165.37 130.272 178.67 130.272 178.67H200.288C200.288 178.67 200.853 170.404 197.401 168.614C193.95 166.824 200.583 158.469 197.762 157.072C194.942 155.675 198.909 143.556 198.909 143.556L207.507 103.881L184.638 86.3918L181.16 78.201L163.284 77.1241Z" fill="#1D2C33"/>
<path d="M174.303 128.652C175.991 128.652 177.359 127.315 177.359 125.666C177.359 124.016 175.991 122.679 174.303 122.679C172.616 122.679 171.248 124.016 171.248 125.666C171.248 127.315 172.616 128.652 174.303 128.652Z" fill="#F2F2F2"/>
<path d="M130.272 178.67L127.385 251.342C127.385 251.342 114.918 305.017 117.084 306.428C119.249 307.839 120.166 316.253 120.166 316.253L132.437 317.664C132.437 317.664 132.437 312.02 135.325 309.903C138.212 307.787 164.919 208.303 164.919 208.303L190.974 304.489C190.974 304.489 191.627 309.903 193.792 309.903C195.958 309.903 196.679 317.664 196.679 317.664H208.95V309.903C208.95 309.903 214.464 308.195 212.299 302.55C210.133 296.906 200.288 178.67 200.288 178.67H130.272Z" fill="#0E1F26"/>
<path d="M172.454 72.7935C180.627 72.7935 187.252 66.3178 187.252 58.3296C187.252 50.3414 180.627 43.8657 172.454 43.8657C164.282 43.8657 157.657 50.3414 157.657 58.3296C157.657 66.3178 164.282 72.7935 172.454 72.7935Z" fill="#FFB6B6"/>
<path opacity="0.1" d="M197.762 123.284L200.649 125.401L202.093 115.523L197.762 123.284Z" fill="black"/>
<path d="M132.378 89.7138C132.378 89.7138 128.768 89.0082 126.603 95.3582C124.438 101.708 116.497 125.697 116.497 129.93C116.497 134.164 165.945 152.842 165.945 152.842L160.8 135.2L138.152 123.58L132.378 89.7138Z" fill="#1D2C33"/>
<path d="M168.239 150.227C172.895 150.227 176.669 146.537 176.669 141.986C176.669 137.435 172.895 133.746 168.239 133.746C163.583 133.746 159.808 137.435 159.808 141.986C159.808 146.537 163.583 150.227 168.239 150.227Z" fill="#FFB6B6"/>
<path opacity="0.1" d="M137.492 114.841L138.152 123.58L159.095 134.325L140.467 122.112L137.492 114.841Z" fill="black"/>
<path d="M187.838 116.087H187.567V108.812C187.567 108.259 187.455 107.711 187.239 107.201C187.022 106.69 186.705 106.226 186.305 105.835C185.905 105.444 185.43 105.133 184.908 104.922C184.385 104.71 183.825 104.601 183.259 104.601H167.491C166.925 104.601 166.365 104.71 165.842 104.922C165.319 105.133 164.845 105.444 164.445 105.835C164.045 106.225 163.727 106.69 163.511 107.201C163.294 107.711 163.183 108.259 163.183 108.812V148.723C163.183 149.276 163.294 149.824 163.511 150.335C163.727 150.846 164.045 151.31 164.445 151.701C164.845 152.092 165.319 152.402 165.842 152.613C166.365 152.825 166.925 152.934 167.491 152.934H183.259C183.825 152.934 184.385 152.825 184.908 152.613C185.43 152.402 185.905 152.092 186.305 151.701C186.705 151.31 187.022 150.846 187.239 150.335C187.455 149.824 187.567 149.276 187.567 148.723V121.265H187.838V116.087Z" fill="#F0F0F0"/>
<path d="M207.507 103.881C207.507 103.881 209.672 105.292 211.116 111.642C212.559 117.992 221.943 141.981 218.334 147.625C214.725 153.27 213.659 159.294 201.388 150.828L184.408 135.631L196.679 124.342L201.732 127.87L207.507 103.881Z" fill="#1D2C33"/>
<path d="M175.567 122.39C177.561 122.39 179.177 120.81 179.177 118.862C179.177 116.914 177.561 115.334 175.567 115.334C173.574 115.334 171.958 116.914 171.958 118.862C171.958 120.81 173.574 122.39 175.567 122.39Z" fill="#1D2C33"/>
<path d="M186.015 134.831C190.671 134.831 194.446 131.142 194.446 126.591C194.446 122.04 190.671 118.35 186.015 118.35C181.359 118.35 177.585 122.04 177.585 126.591C177.585 131.142 181.359 134.831 186.015 134.831Z" fill="#FFB6B6"/>
<path opacity="0.1" d="M137.094 141.217L161.296 151.681L136.422 146.929L137.094 141.217Z" fill="black"/>
<path d="M157.526 61.2121L155.494 53.6541C154.964 51.6821 154.429 49.6702 154.548 47.6345C154.667 45.5989 155.551 43.4982 157.305 42.3954C159.06 41.2926 161.738 41.5531 162.867 43.2676C163.082 40.53 165.63 38.4242 168.333 37.6782C171.036 36.9322 173.906 37.2272 176.712 37.3531C179.518 37.4789 182.48 37.3911 184.902 36C185.087 36.5413 185.075 37.1282 184.868 37.6617C184.661 38.1952 184.272 38.6426 183.767 38.9284C184.369 39.089 185.011 39.02 185.563 38.7355C186.115 38.4509 186.536 37.972 186.74 37.3957C186.758 38.9812 186.159 40.5141 185.063 41.6834C186.108 41.1766 187.309 41.0679 188.432 41.3786C189.554 41.6893 190.518 42.3971 191.136 43.3642C192.372 45.4586 191.68 48.0889 190.957 50.4012L187.245 62.2687C186.682 60.4647 186.576 58.56 186.275 56.697C185.974 54.8341 185.439 52.9316 184.18 51.5016C182.922 50.0716 180.785 49.2434 178.998 49.9534C177.995 50.3518 177.23 51.16 176.324 51.74C174.466 52.9301 172.103 53.1008 169.896 52.8586C167.688 52.6165 165.537 52.0021 163.33 51.7566C161.948 51.603 160.406 51.6436 159.363 52.5434C158.646 53.2717 158.173 54.196 158.005 55.1935C157.513 57.1819 157.32 59.2297 157.431 61.2725" fill="#0E1F26"/>
</g>
<g filter="url(#filter0_d_118_650)">
<path d="M275.751 98V131.541C274.609 131.181 273.417 131.001 272.218 131.007C267.131 131.007 263 134.536 263 139.523C263 144.51 267.131 148 272.218 148C277.305 148 281.462 144.328 281.462 139V115.708H308.289V131.541C307.148 131.181 305.955 131.001 304.756 131.007C299.669 131.007 295.538 134.536 295.538 139.523C295.538 144.51 299.669 148 304.756 148C309.843 148 314 144.328 314 139V98H275.751ZM308.29 110.5H281.463V103.6H308.29V110.5Z" fill="#1D2C33"/>
</g>
<g filter="url(#filter1_d_118_650)">
<path d="M393.117 80V140.506C388.65 137.988 383.459 136.98 378.347 137.641C373.235 138.301 368.49 140.593 364.846 144.159C361.203 147.725 358.866 152.367 358.198 157.365C357.529 162.362 358.567 167.435 361.15 171.797C363.733 176.159 367.716 179.566 372.483 181.488C377.249 183.411 382.531 183.743 387.509 182.431C392.488 181.119 396.884 178.238 400.016 174.235C403.148 170.231 404.841 165.329 404.831 160.289V102.928H428.316V80H393.117Z" fill="#1D2C33"/>
<path opacity="0.1" d="M424.741 80V99.1652H401.256V156.526C401.258 160.834 400.017 165.055 397.677 168.706C395.336 172.356 391.991 175.288 388.024 177.165C384.057 179.041 379.629 179.788 375.248 179.317C370.868 178.847 366.711 177.18 363.255 174.506C366.276 178.242 370.412 180.966 375.089 182.3C379.766 183.633 384.751 183.51 389.353 181.946C393.955 180.383 397.945 177.458 400.768 173.577C403.591 169.696 405.107 165.052 405.106 160.289V102.928H428.591V80H424.741Z" fill="black"/>
</g>
<path d="M468.611 318.297V203.299C468.606 199.773 467.171 196.394 464.62 193.901C462.07 191.408 458.612 190.005 455.005 190H270.129C266.522 190.005 263.065 191.408 260.514 193.901C257.964 196.394 256.529 199.773 256.524 203.299V318.297C256.529 321.822 257.964 325.202 260.514 327.695C263.065 330.188 266.522 331.591 270.129 331.596H455.005C458.612 331.591 462.07 330.188 464.62 327.695C467.171 325.202 468.606 321.822 468.611 318.297ZM270.129 330.031C266.947 330.027 263.895 328.79 261.645 326.59C259.394 324.39 258.128 321.408 258.124 318.297V203.299C258.128 200.188 259.394 197.206 261.645 195.006C263.895 192.806 266.947 191.568 270.129 191.565H455.005C458.188 191.568 461.239 192.806 463.49 195.006C465.74 197.206 467.006 200.188 467.01 203.299V318.297C467.006 321.408 465.74 324.39 463.49 326.59C461.239 328.79 458.188 330.027 455.005 330.031H270.129Z" fill="#F0F0F0"/>
<path d="M467.01 210.691H258.124C257.912 210.691 257.709 210.608 257.558 210.462C257.408 210.315 257.324 210.116 257.324 209.908C257.324 209.701 257.408 209.502 257.558 209.355C257.709 209.209 257.912 209.126 258.124 209.126H467.01C467.223 209.126 467.426 209.209 467.576 209.355C467.726 209.502 467.811 209.701 467.811 209.908C467.811 210.116 467.726 210.315 467.576 210.462C467.426 210.608 467.223 210.691 467.01 210.691Z" fill="#F0F0F0"/>
<path d="M271.73 204.864C273.94 204.864 275.732 203.112 275.732 200.952C275.732 198.792 273.94 197.041 271.73 197.041C269.52 197.041 267.728 198.792 267.728 200.952C267.728 203.112 269.52 204.864 271.73 204.864Z" fill="#FF6584"/>
<path d="M285.336 204.864C287.546 204.864 289.337 203.112 289.337 200.952C289.337 198.792 287.546 197.041 285.336 197.041C283.125 197.041 281.334 198.792 281.334 200.952C281.334 203.112 283.125 204.864 285.336 204.864Z" fill="#FF6584"/>
<path d="M298.941 204.864C301.151 204.864 302.943 203.112 302.943 200.952C302.943 198.792 301.151 197.041 298.941 197.041C296.731 197.041 294.939 198.792 294.939 200.952C294.939 203.112 296.731 204.864 298.941 204.864Z" fill="#FF6584"/>
<path d="M323.473 246.857H317.01C316.01 246.857 315.051 246.468 314.344 245.777C313.637 245.086 313.24 244.149 313.24 243.172C313.24 242.194 313.637 241.257 314.344 240.566C315.051 239.875 316.01 239.487 317.01 239.487H323.473C324.473 239.487 325.432 239.875 326.139 240.566C326.846 241.257 327.243 242.194 327.243 243.172C327.243 244.149 326.846 245.086 326.139 245.777C325.432 246.468 324.473 246.857 323.473 246.857Z" fill="white"/>
<path d="M367.636 262.387H361.173C360.173 262.387 359.214 261.998 358.507 261.307C357.8 260.616 357.403 259.679 357.403 258.702C357.403 257.724 357.8 256.787 358.507 256.096C359.214 255.405 360.173 255.016 361.173 255.016H367.636C368.636 255.016 369.595 255.405 370.302 256.096C371.009 256.787 371.406 257.724 371.406 258.702C371.406 259.679 371.009 260.616 370.302 261.307C369.595 261.998 368.636 262.387 367.636 262.387Z" fill="white"/>
<path d="M388.102 262.387H381.639C380.639 262.387 379.68 261.998 378.973 261.307C378.266 260.616 377.869 259.679 377.869 258.702C377.869 257.724 378.266 256.787 378.973 256.096C379.68 255.405 380.639 255.016 381.639 255.016H388.102C389.102 255.016 390.06 255.405 390.768 256.096C391.475 256.787 391.872 257.724 391.872 258.702C391.872 259.679 391.475 260.616 390.768 261.307C390.06 261.998 389.102 262.387 388.102 262.387Z" fill="white"/>
<path d="M408.567 262.387H402.105C401.105 262.387 400.146 261.998 399.439 261.307C398.732 260.616 398.335 259.679 398.335 258.702C398.335 257.724 398.732 256.787 399.439 256.096C400.146 255.405 401.105 255.016 402.105 255.016H408.567C409.567 255.016 410.526 255.405 411.233 256.096C411.94 256.787 412.338 257.724 412.338 258.702C412.338 259.679 411.94 260.616 411.233 261.307C410.526 261.998 409.567 262.387 408.567 262.387Z" fill="white"/>
<path d="M368.174 247.12H338.014C337.014 247.12 336.056 246.732 335.349 246.041C334.642 245.35 334.244 244.412 334.244 243.435C334.244 242.458 334.642 241.52 335.349 240.829C336.056 240.138 337.014 239.75 338.014 239.75H368.174C369.174 239.75 370.133 240.138 370.84 240.829C371.547 241.52 371.944 242.458 371.944 243.435C371.944 244.412 371.547 245.35 370.84 246.041C370.133 246.732 369.174 247.12 368.174 247.12Z" fill="white"/>
<path d="M347.17 261.86H317.01C316.01 261.86 315.051 261.472 314.344 260.781C313.637 260.09 313.24 259.152 313.24 258.175C313.24 257.198 313.637 256.26 314.344 255.569C315.051 254.878 316.01 254.49 317.01 254.49H347.17C348.17 254.49 349.129 254.878 349.836 255.569C350.543 256.26 350.94 257.198 350.94 258.175C350.94 259.152 350.543 260.09 349.836 260.781C349.129 261.472 348.17 261.86 347.17 261.86Z" fill="white"/>
<path d="M406.413 247.12H383.255C382.255 247.12 381.296 246.732 380.589 246.041C379.882 245.35 379.485 244.412 379.485 243.435C379.485 242.458 379.882 241.52 380.589 240.829C381.296 240.138 382.255 239.75 383.255 239.75H406.413C407.413 239.75 408.372 240.138 409.079 240.829C409.786 241.52 410.183 242.458 410.183 243.435C410.183 244.412 409.786 245.35 409.079 246.041C408.372 246.732 407.413 247.12 406.413 247.12Z" fill="white"/>
<path d="M323.473 277.917H317.01C316.01 277.917 315.051 277.528 314.344 276.837C313.637 276.146 313.24 275.209 313.24 274.231C313.24 273.254 313.637 272.317 314.344 271.626C315.051 270.935 316.01 270.546 317.01 270.546H323.473C324.473 270.546 325.432 270.935 326.139 271.626C326.846 272.317 327.243 273.254 327.243 274.231C327.243 275.209 326.846 276.146 326.139 276.837C325.432 277.528 324.473 277.917 323.473 277.917Z" fill="white"/>
<path d="M368.174 278.18H338.014C337.014 278.18 336.056 277.792 335.349 277.1C334.642 276.409 334.244 275.472 334.244 274.495C334.244 273.517 334.642 272.58 335.349 271.889C336.056 271.198 337.014 270.81 338.014 270.81H368.174C369.174 270.81 370.133 271.198 370.84 271.889C371.547 272.58 371.944 273.517 371.944 274.495C371.944 275.472 371.547 276.409 370.84 277.1C370.133 277.792 369.174 278.18 368.174 278.18Z" fill="white"/>
<path d="M406.413 278.18H383.255C382.255 278.18 381.296 277.792 380.589 277.1C379.882 276.409 379.485 275.472 379.485 274.495C379.485 273.517 379.882 272.58 380.589 271.889C381.296 271.198 382.255 270.81 383.255 270.81H406.413C407.413 270.81 408.372 271.198 409.079 271.889C409.786 272.58 410.183 273.517 410.183 274.495C410.183 275.472 409.786 276.409 409.079 277.1C408.372 277.792 407.413 278.18 406.413 278.18Z" fill="white"/>
<path d="M396.18 290.551C396.181 289.574 396.579 288.637 397.286 287.947C397.993 287.256 398.951 286.867 399.95 286.866H406.413C407.413 286.866 408.372 287.254 409.079 287.945C409.786 288.636 410.183 289.574 410.183 290.551C410.183 291.528 409.786 292.466 409.079 293.157C408.372 293.848 407.413 294.236 406.413 294.236H399.95C398.951 294.235 397.993 293.846 397.286 293.156C396.579 292.465 396.181 291.528 396.18 290.551Z" fill="white"/>
<path d="M351.479 290.814C351.48 289.837 351.877 288.901 352.584 288.21C353.291 287.519 354.249 287.13 355.249 287.129H385.409C386.409 287.129 387.368 287.517 388.075 288.209C388.782 288.9 389.179 289.837 389.179 290.814C389.179 291.792 388.782 292.729 388.075 293.42C387.368 294.111 386.409 294.499 385.409 294.499H355.249C354.249 294.498 353.291 294.11 352.584 293.419C351.877 292.728 351.48 291.791 351.479 290.814Z" fill="white"/>
<path d="M313.24 290.814C313.241 289.837 313.639 288.901 314.345 288.21C315.052 287.519 316.011 287.13 317.01 287.129H340.169C341.169 287.129 342.127 287.517 342.835 288.209C343.542 288.9 343.939 289.837 343.939 290.814C343.939 291.792 343.542 292.729 342.835 293.42C342.127 294.111 341.169 294.499 340.169 294.499H317.01C316.011 294.498 315.052 294.11 314.345 293.419C313.639 292.728 313.241 291.791 313.24 290.814Z" fill="white"/>
<defs>
<filter id="filter0_d_118_650" x="259" y="98" width="59" height="58" filterUnits="userSpaceOnUse" color-interpolation-filters="sRGB">
<feFlood flood-opacity="0" result="BackgroundImageFix"/>
<feColorMatrix in="SourceAlpha" type="matrix" values="0 0 0 0 0 0 0 0 0 0 0 0 0 0 0 0 0 0 127 0" result="hardAlpha"/>
<feOffset dy="4"/>
<feGaussianBlur stdDeviation="2"/>
<feComposite in2="hardAlpha" operator="out"/>
<feColorMatrix type="matrix" values="0 0 0 0 0 0 0 0 0 0 0 0 0 0 0 0 0 0 0.25 0"/>
<feBlend mode="normal" in2="BackgroundImageFix" result="effect1_dropShadow_118_650"/>
<feBlend mode="normal" in="SourceGraphic" in2="effect1_dropShadow_118_650" result="shape"/>
</filter>
<filter id="filter1_d_118_650" x="354" y="80" width="78.5906" height="111.22" filterUnits="userSpaceOnUse" color-interpolation-filters="sRGB">
<feFlood flood-opacity="0" result="BackgroundImageFix"/>
<feColorMatrix in="SourceAlpha" type="matrix" values="0 0 0 0 0 0 0 0 0 0 0 0 0 0 0 0 0 0 127 0" result="hardAlpha"/>
<feOffset dy="4"/>
<feGaussianBlur stdDeviation="2"/>
<feComposite in2="hardAlpha" operator="out"/>
<feColorMatrix type="matrix" values="0 0 0 0 0 0 0 0 0 0 0 0 0 0 0 0 0 0 0.25 0"/>
<feBlend mode="normal" in2="BackgroundImageFix" result="effect1_dropShadow_118_650"/>
<feBlend mode="normal" in="SourceGraphic" in2="effect1_dropShadow_118_650" result="shape"/>
</filter>
<clipPath id="clip0_118_650">
<rect width="459.527" height="381" fill="white" transform="translate(0.409943 0.974304)"/>
</clipPath>
</defs>
</svg>
