<svg width="373" height="329" viewBox="0 0 373 329" fill="none" xmlns="http://www.w3.org/2000/svg">
<path d="M239.545 297.069L238.63 284.331C232.635 281.332 225.999 279.843 219.298 279.992C228.725 287.285 227.97 301.859 234.499 311.834C236.559 314.929 239.288 317.521 242.485 319.417C245.682 321.313 249.265 322.465 252.967 322.787L260.813 327.304C261.71 321.368 261.311 315.307 259.643 309.54C257.975 303.774 255.077 298.437 251.149 293.899C248.921 291.375 246.383 289.142 243.597 287.252C241.882 292.179 239.545 297.069 239.545 297.069Z" fill="#F2F2F2"/>
<path d="M192.812 329H372.425C372.577 329 372.724 328.939 372.831 328.831C372.939 328.723 373 328.577 373 328.424C373 328.271 372.939 328.125 372.831 328.017C372.724 327.909 372.577 327.848 372.425 327.848H192.812C192.66 327.848 192.513 327.909 192.406 328.017C192.298 328.125 192.237 328.271 192.237 328.424C192.237 328.577 192.298 328.723 192.406 328.831C192.513 328.939 192.66 329 192.812 329Z" fill="#CCCCCC"/>
<path d="M78.4553 191.534V191.781H78.627C78.5648 191.702 78.5075 191.62 78.4553 191.534ZM79.7763 87.0261C67.7871 102.63 61.2974 121.767 61.3201 141.45C61.3228 144.447 61.4695 147.402 61.7603 150.315C61.8052 150.816 61.8573 151.316 61.9247 151.809C63.5905 166.294 68.7908 180.147 77.0673 192.147C77.3879 192.617 77.7163 193.08 78.045 193.543C81.6079 198.542 85.6755 203.161 90.1833 207.327C126.473 240.861 183.057 238.606 216.567 202.289C217.082 201.744 217.575 201.191 218.06 200.639C231.776 185.093 239.666 165.261 240.381 144.536C241.096 123.81 234.59 103.481 221.978 87.0261C221.597 86.5257 221.209 86.0253 220.806 85.5324C219.923 84.4196 219.008 83.3292 218.06 82.2612C217.575 81.7085 217.082 81.1558 216.567 80.6106C208.2 71.5295 198.043 64.283 186.737 59.3287C175.43 54.3745 163.22 51.82 150.877 51.8266C150.019 51.8266 149.168 51.8415 148.317 51.8639C147.75 51.8788 147.183 51.9012 146.616 51.9311C133.911 52.5346 121.482 55.8442 110.158 61.6386C98.8334 67.4331 88.8751 75.579 80.9479 85.5324C80.5448 86.0253 80.1571 86.5257 79.7763 87.0261L79.7763 87.0261ZM78.627 191.781C78.5648 191.702 78.5075 191.62 78.4553 191.534V191.781H78.627Z" fill="white"/>
<path d="M77.8285 190.616L78.0822 190.1L97.0832 151.809V151.801L97.8222 150.315V150.308L129.212 87.0261V87.0186L129.951 85.5324L129.958 85.5249L145.855 53.4622L146.616 51.9311C147.183 51.9012 147.75 51.8788 148.317 51.8639L147.564 53.3875L131.623 85.5249V85.5324L130.884 87.0186V87.0261L98.6727 151.958L98.6655 151.966L79.6644 190.287L78.9181 191.781L78.7986 192.027L78.045 193.543C77.7163 193.08 77.388 192.617 77.0673 192.147L77.8285 190.616Z" fill="#3F3D56"/>
<path d="M98.352 150.315V151.809H61.9247C61.8572 151.316 61.8051 150.816 61.7603 150.315H98.352Z" fill="#3F3D56"/>
<path d="M154.962 161.967V160.473H191.389C191.457 160.966 191.509 161.467 191.554 161.967H154.962Z" fill="#3F3D56"/>
<path d="M185.431 156.763H186.923V193.217C186.431 193.285 185.931 193.337 185.431 193.382V156.763Z" fill="#3F3D56"/>
<path d="M221.978 87.0261C221.597 86.5257 221.209 86.0253 220.806 85.5324H218.06V82.2611C217.575 81.7085 217.082 81.1558 216.567 80.6106V85.5324H80.9479C80.5448 86.0253 80.1571 86.5257 79.7763 87.0261H216.567V202.289C217.082 201.744 217.575 201.191 218.06 200.639V87.0261H221.978Z" fill="#3F3D56"/>
<path d="M217.313 190.286H78.4536V191.78H217.313V190.286Z" fill="#3F3D56"/>
<path d="M78.4553 191.534V191.781H78.627C78.5648 191.702 78.5075 191.62 78.4553 191.534ZM79.7763 87.0261C67.7871 102.63 61.2974 121.767 61.3201 141.45C61.3228 144.447 61.4695 147.402 61.7603 150.315C61.8052 150.816 61.8573 151.316 61.9247 151.809C63.5905 166.294 68.7908 180.147 77.0673 192.147C77.3879 192.617 77.7163 193.08 78.045 193.543C81.6079 198.542 85.6755 203.161 90.1833 207.327C126.473 240.861 183.057 238.606 216.567 202.289C217.082 201.744 217.575 201.191 218.06 200.639C231.776 185.093 239.666 165.261 240.381 144.536C241.096 123.81 234.59 103.481 221.978 87.0261C221.597 86.5257 221.209 86.0253 220.806 85.5324C219.923 84.4196 219.008 83.3292 218.06 82.2612C217.575 81.7085 217.082 81.1558 216.567 80.6106C208.2 71.5295 198.043 64.283 186.737 59.3287C175.43 54.3745 163.22 51.82 150.877 51.8266C150.019 51.8266 149.168 51.8415 148.317 51.8639C147.75 51.8788 147.183 51.9012 146.616 51.9311C133.911 52.5346 121.482 55.8442 110.158 61.6386C98.8334 67.4331 88.8751 75.579 80.9479 85.5324C80.5448 86.0253 80.1571 86.5257 79.7763 87.0261L79.7763 87.0261ZM63.4246 151.809C63.3575 151.316 63.3054 150.815 63.253 150.315C60.9781 127.631 67.5745 104.947 81.657 87.0261C82.0524 86.5257 82.4481 86.0253 82.8585 85.5324C90.5716 76.1174 100.153 68.4061 110.996 62.886C121.839 57.3659 133.709 54.157 145.854 53.4621C146.421 53.4323 146.989 53.4024 147.563 53.3875C148.66 53.3427 149.765 53.3202 150.877 53.3202C163.288 53.3129 175.559 55.9383 186.882 61.0234C198.205 66.1085 208.323 73.5377 216.567 82.8213C217.082 83.3889 217.582 83.9565 218.06 84.539C218.351 84.8677 218.627 85.1963 218.896 85.5324C219.306 86.0253 219.701 86.5257 220.097 87.0261C232.646 102.97 239.298 122.765 238.927 143.057C238.555 163.349 231.183 182.888 218.06 198.361C217.582 198.943 217.082 199.511 216.567 200.078C212.023 205.187 206.899 209.749 201.3 213.671C161.5 241.547 106.654 231.857 78.7986 192.027C78.7388 191.945 78.679 191.863 78.6269 191.781C78.5647 191.702 78.5074 191.62 78.4553 191.534C78.2389 191.228 78.03 190.922 77.8285 190.616C69.9891 179.022 65.0491 165.713 63.4245 151.809L63.4246 151.809ZM78.627 191.781C78.5648 191.702 78.5074 191.62 78.4553 191.534V191.781H78.627Z" fill="#CCCCCC"/>
<path d="M254.021 237.712H164.671C163.579 237.711 162.532 237.276 161.759 236.503C160.987 235.73 160.552 234.681 160.551 233.588V190.02C160.552 188.927 160.987 187.878 161.759 187.105C162.532 186.332 163.579 185.897 164.671 185.896H254.021C255.113 185.897 256.16 186.332 256.933 187.105C257.705 187.878 258.14 188.927 258.141 190.02V233.588C258.14 234.681 257.705 235.73 256.933 236.503C256.16 237.276 255.113 237.711 254.021 237.712Z" fill="#CACACA"/>
<path d="M214.664 234.206C195.096 234.206 174.692 234.019 167.079 233.898C166.077 233.877 165.123 233.465 164.421 232.75C163.718 232.036 163.323 231.074 163.319 230.072V190.023C163.32 189.664 163.462 189.32 163.715 189.066C163.969 188.812 164.312 188.668 164.671 188.667H254.018C254.376 188.667 254.72 188.81 254.974 189.063C255.228 189.317 255.372 189.661 255.373 190.02V217.192C255.356 221.627 253.603 225.88 250.489 229.036C247.376 232.193 243.15 234.003 238.718 234.078C231.623 234.17 223.221 234.206 214.664 234.206Z" fill="#E4E4E4"/>
<path d="M244.796 213.703H172.097C171.625 213.702 171.166 213.556 170.78 213.284C170.395 213.012 170.103 212.628 169.944 212.184L161.716 189.082C161.593 188.738 161.555 188.368 161.604 188.006C161.654 187.643 161.79 187.297 162 186.998C162.211 186.699 162.49 186.454 162.815 186.286C163.139 186.117 163.5 186.028 163.865 186.028L254.741 185.901H254.744C255.122 185.901 255.494 185.995 255.827 186.174C256.16 186.354 256.443 186.613 256.652 186.929C256.86 187.245 256.986 187.607 257.02 187.984C257.054 188.361 256.993 188.741 256.844 189.088L256.72 189.035L256.844 189.088L246.896 212.317C246.721 212.729 246.428 213.079 246.054 213.326C245.681 213.572 245.243 213.703 244.796 213.703Z" fill="#CACACA"/>
<path d="M193.168 229.714H168.1C167.482 229.713 166.891 229.467 166.455 229.03C166.019 228.593 165.774 228.001 165.774 227.383C165.774 226.766 166.019 226.174 166.455 225.737C166.891 225.3 167.482 225.054 168.1 225.053H193.168C193.785 225.054 194.377 225.3 194.813 225.737C195.249 226.174 195.494 226.766 195.494 227.383C195.494 228.001 195.249 228.593 194.813 229.03C194.377 229.467 193.785 229.713 193.168 229.714Z" fill="#CACACA"/>
<path d="M209.21 219.4C212.355 219.4 214.903 216.849 214.903 213.703C214.903 210.557 212.355 208.006 209.21 208.006C206.066 208.006 203.518 210.557 203.518 213.703C203.518 216.849 206.066 219.4 209.21 219.4Z" fill="#3F3D56"/>
<path d="M28.7773 11.7801C42.7651 1.92208 60.0931 -1.97141 76.9495 0.956122C93.8058 3.88365 108.81 13.3924 118.66 27.3905C139.173 56.5402 159.757 132.978 145.227 177.259C101.888 131.447 35.3075 126.687 13.1784 101.73C-10.4673 75.0622 -0.350743 32.3083 28.7773 11.7801Z" fill="#263A41"/>
<path d="M66.7969 77.7875C78.4158 77.7875 87.8347 68.3616 87.8347 56.7341C87.8347 45.1066 78.4158 35.6807 66.7969 35.6807C55.178 35.6807 45.759 45.1066 45.759 56.7341C45.759 68.3616 55.178 77.7875 66.7969 77.7875Z" fill="white"/>
<path d="M163.011 200.187C170.621 200.187 176.791 194.013 176.791 186.397C176.791 178.782 170.621 172.608 163.011 172.608C155.401 172.608 149.232 178.782 149.232 186.397C149.232 194.013 155.401 200.187 163.011 200.187Z" fill="#263A41"/>
<path opacity="0.2" d="M44.2888 51.8762C42.8958 54.2637 41.9864 56.9024 41.6124 59.6417C41.2384 62.381 41.4073 65.1672 42.1092 67.8411C42.8112 70.5151 44.0327 73.0245 45.7037 75.2261C47.3748 77.4277 49.4629 79.2784 51.8486 80.6724C54.2344 82.0665 56.8712 82.9766 59.6084 83.3508C62.3457 83.7251 65.1298 83.5561 67.8018 82.8536C70.4738 82.1511 72.9814 80.9288 75.1813 79.2565C77.3813 77.5842 79.2306 75.4946 80.6236 73.107C76.8685 76.4037 72.0635 78.2555 67.0688 78.3308C62.074 78.4062 57.2155 76.7002 53.3628 73.5182C49.5101 70.3363 46.9147 65.886 46.0411 60.964C45.1676 56.042 46.0729 50.9696 48.595 46.6545C46.8875 48.1512 45.4333 49.9146 44.2888 51.8762Z" fill="#231F20"/>
<path opacity="0.2" d="M13.1388 101.829C35.2679 126.786 101.849 131.546 145.187 177.358C146.54 173.168 147.581 168.884 148.302 164.541C104.985 122.894 42.1111 117.631 20.7304 93.5177C1.59427 71.9361 4.57311 39.8206 21.8433 17.4744C-1.84248 39.4465 -8.53022 77.3907 13.1388 101.829Z" fill="#231F20"/>
<path d="M288.201 190.007L279.266 187.283C275.378 191.976 272.153 205.569 272.153 205.569L259.925 225.453C259.271 225.764 258.71 226.242 258.299 226.839C257.888 227.436 257.641 228.13 257.583 228.853C257.526 229.576 257.659 230.301 257.971 230.955C258.282 231.609 258.76 232.17 259.357 232.581C259.954 232.992 260.649 233.238 261.371 233.295C262.093 233.351 262.817 233.217 263.471 232.904C264.124 232.592 264.684 232.113 265.094 231.515C265.504 230.917 265.749 230.222 265.805 229.499L284.311 207.016L288.201 190.007Z" fill="#FFB6B6"/>
<path d="M288.029 192.177L289.681 178.642L285.98 172.457C285.249 171.245 284.194 170.263 282.934 169.619C281.674 168.976 280.259 168.699 278.85 168.818C276.941 168.992 275.169 169.886 273.893 171.318C272.617 172.75 271.931 174.613 271.976 176.531C272.114 182.348 273.03 189.704 276.604 191.715L276.64 191.735L288.029 192.177Z" fill="#263A41"/>
<path d="M313.268 314.473L307.911 317.061L295.386 297.612L303.294 293.793L313.268 314.473Z" fill="#FFB6B6"/>
<path d="M316.155 319.975L299.68 327.933L299.58 327.725C298.759 326.023 298.647 324.064 299.269 322.28C299.891 320.495 301.196 319.031 302.896 318.21L302.897 318.209L304.804 314.471L311.521 314.043L312.959 313.349L316.155 319.975Z" fill="#2F2E41"/>
<path d="M273.389 321.723L267.44 321.722L264.61 298.759L273.39 298.759L273.389 321.723Z" fill="#FFB6B6"/>
<path d="M273.599 327.933L255.305 327.932V327.701C255.305 325.811 256.055 323.999 257.39 322.662C258.726 321.326 260.537 320.575 262.425 320.575H262.426L265.767 318.038L272.002 320.575L273.599 320.576L273.599 327.933Z" fill="#2F2E41"/>
<path d="M267.493 215.222L260.676 262.267L262.531 268.457L260.097 272.841L263.672 305.839L262.221 309.036L266.275 311.539H274.526L274.964 276.682L277.002 271.564V268.744L281.151 247.489L282.108 280.577L283.432 283.134C288.366 294.336 295.012 298.004 299.711 306.378L307.962 301.905L307.789 298.57C309.446 297.73 305.3 295.275 304.902 293.459L304.18 290.208L299.367 280.231L299.183 276.717L300.501 252.819L299.881 220.638L289.058 212.356L267.493 215.222Z" fill="#2F2E41"/>
<path d="M278.205 158.159C284.125 158.159 288.924 153.357 288.924 147.432C288.924 141.508 284.125 136.705 278.205 136.705C272.284 136.705 267.485 141.508 267.485 147.432C267.485 153.357 272.284 158.159 278.205 158.159Z" fill="#FFB6B6"/>
<path d="M262.366 235.516L262.21 235.462L264.285 228.714C264.012 227.844 263.96 226.921 264.133 226.026C264.306 225.132 264.698 224.294 265.275 223.589C264.94 223.008 263.556 220.263 265.809 217.931C265.674 217.251 264.997 213.226 267.361 211.259C267.361 211.259 271.948 176.465 274.521 167.274C274.596 166.602 273.993 161.112 277.454 160.897C279.279 160.783 282.018 160.61 286.129 160.345C286.66 160.307 286.971 161.204 287.442 162.664C287.761 163.653 286.119 165.003 286.517 164.98L286.545 164.979L286.572 164.986C290.406 166.015 293.77 168.333 296.097 171.552C298.425 174.771 299.573 178.693 299.351 182.66L298.129 203.45C298.314 204.286 302.206 227.994 301.189 230.539C300.611 231.983 301.596 232.882 302.314 233.539C302.684 233.877 302.952 234.121 302.914 234.389C302.899 234.462 302.866 234.531 302.818 234.588C302.769 234.645 302.707 234.689 302.637 234.716C301.987 235.041 302.346 237.272 302.726 238.601L302.764 238.737L302.639 238.802C302.494 238.876 290.862 233.537 276.73 233.537C271.404 233.537 268.325 237.597 262.366 235.516Z" fill="#263A41"/>
<path d="M286.699 154.028C286.588 153.97 286.49 153.89 286.412 153.792C286.333 153.695 286.276 153.582 286.244 153.46L286.091 152.838L286.561 153.327C286.813 153.119 287.005 152.848 287.118 152.542C287.231 152.236 287.262 151.905 287.207 151.583C287.152 151.262 287.013 150.96 286.804 150.709C286.595 150.458 286.324 150.267 286.018 150.154C285.811 150.085 285.599 150.033 285.384 150C285.159 149.964 284.937 149.91 284.72 149.84C284.213 149.62 283.775 149.266 283.455 148.815C283.135 148.365 282.944 147.835 282.903 147.284C282.833 146.311 282.941 145.335 283.221 144.401C278.491 145.128 273.668 144.983 268.99 143.973C268.269 143.821 267.579 143.549 266.948 143.169C265.792 142.484 264.831 141.515 264.153 140.355C264.063 140.199 264.026 140.018 264.047 139.838C264.067 139.659 264.145 139.491 264.267 139.359C264.353 139.267 264.456 139.194 264.571 139.143C264.686 139.092 264.81 139.066 264.935 139.065L264.764 138.601C264.71 138.456 264.696 138.3 264.723 138.148C264.75 137.995 264.816 137.853 264.916 137.735C265.015 137.617 265.144 137.527 265.29 137.475C265.435 137.423 265.592 137.411 265.743 137.439L266.35 137.553L266.292 137.149C266.27 136.999 266.288 136.846 266.343 136.704C266.399 136.563 266.49 136.438 266.609 136.343C266.727 136.248 266.868 136.185 267.018 136.161C267.168 136.137 267.321 136.153 267.463 136.206C267.593 136.255 267.733 136.276 267.871 136.265C268.01 136.255 268.145 136.215 268.267 136.148C268.388 136.081 268.494 135.988 268.577 135.876C268.659 135.764 268.716 135.635 268.744 135.499L268.953 134.485L268.974 134.431C270.001 132.72 271.972 131.476 274.384 131.019C276.535 130.611 278.731 130.817 280.855 131.016C281.756 131.034 282.641 131.258 283.442 131.67C283.805 131.879 284.103 132.185 284.302 132.554C284.501 132.923 284.594 133.34 284.57 133.758C286.661 133.115 288.906 134.397 290.015 136.013C291.334 137.934 291.547 140.344 291.586 142.229C291.677 146.685 290.759 150.331 288.86 153.066C288.587 153.53 288.176 153.896 287.683 154.112C287.558 154.154 287.426 154.176 287.294 154.175C287.087 154.176 286.882 154.125 286.699 154.028Z" fill="#2F2E41"/>
<path d="M287.085 196.265L279.217 191.229C274.207 194.697 267.436 206.915 267.436 206.915L250.299 222.758C249.585 222.881 248.916 223.19 248.359 223.653C247.802 224.117 247.377 224.719 247.127 225.399C246.877 226.079 246.81 226.814 246.933 227.528C247.056 228.242 247.366 228.911 247.83 229.468C248.293 230.025 248.896 230.449 249.576 230.699C250.256 230.949 250.989 231.015 251.703 230.89C252.417 230.766 253.085 230.456 253.641 229.991C254.196 229.526 254.62 228.923 254.869 228.242L278.752 211.592L287.085 196.265Z" fill="#FFB6B6"/>
<path d="M286.335 198.308L291.575 185.722L289.68 178.767C289.303 177.402 288.552 176.171 287.512 175.212C286.472 174.252 285.185 173.603 283.796 173.337C281.911 172.989 279.964 173.371 278.349 174.405C276.734 175.439 275.571 177.048 275.097 178.907C273.661 184.546 272.559 191.876 275.458 194.777L275.487 194.806L286.335 198.308Z" fill="#263A41"/>
</svg>
