<svg width="574" height="381" viewBox="0 0 574 381" fill="none" xmlns="http://www.w3.org/2000/svg">
<g clip-path="url(#clip0_77_443)">
<path d="M334.59 67.1659C345.338 67.1659 354.05 59.2069 354.05 49.3889C354.05 39.571 345.338 31.612 334.59 31.612C323.843 31.612 315.131 39.571 315.131 49.3889C315.131 59.2069 323.843 67.1659 334.59 67.1659Z" fill="#3f3d56"/>
<path d="M485.544 330.996C514.468 310.87 528.283 277.05 519.634 244.788C519.42 243.987 519.193 243.187 518.954 242.389C513.22 223.239 499.035 205.038 478.36 198.919C461 193.781 442.051 197.732 423.941 195.689C388.389 191.678 360.826 165.4 341.433 137.886C322.039 110.372 307.134 79.5747 281.364 56.8443C238.886 19.3771 169.594 11.3104 116.927 35.6987C64.2607 60.0872 30.7127 114.195 32.1434 168.12C33.5742 222.045 68.6171 273.601 119.508 300.955C138.203 311.004 159.826 318.123 181.346 315.632C200.017 313.47 216.983 304.305 235.567 301.584C264.786 297.306 293.818 309.374 319.09 323.437C344.361 337.501 368.772 354.17 397.49 360.69C425.375 367.02 459.921 348.824 485.544 330.996Z" fill="#3f3d56"/>
<path d="M443.987 36.8311C443.352 36.445 442.711 36.0788 442.077 35.706C423.748 24.9973 404.103 16.2978 383.547 9.78699L378.781 69.854H348.565V1.01862C346.663 0.659095 344.746 0.319546 342.829 -3.05176e-05V69.854H306.921C287.153 69.854 268.195 62.6803 254.217 49.911C240.24 37.1417 232.387 19.8229 232.387 1.76437V1.76431C230.463 2.14381 228.553 2.54994 226.644 2.9827V69.854H197.397L192.857 12.5766C171.732 19.9777 151.678 29.7104 133.139 41.5582C132.818 41.7579 132.498 41.9643 132.184 42.1641C130.574 43.196 128.985 44.248 127.403 45.3132V274.469H213.598L212.075 255.195L203.694 149.369H372.477L364.096 255.195L362.572 274.469H447.813V39.1481C446.545 38.3625 445.269 37.5902 443.987 36.8311ZM226.644 131.892H202.309L197.813 75.1004H226.644V131.892ZM342.829 131.892H301.958V130.767C301.958 130.226 301.841 129.69 301.615 129.19C301.388 128.691 301.055 128.237 300.636 127.855C300.217 127.473 299.72 127.17 299.173 126.963C298.625 126.757 298.039 126.651 297.447 126.652H279.679C279.087 126.652 278.501 126.758 277.955 126.965C277.408 127.172 276.912 127.475 276.493 127.857C276.075 128.239 275.743 128.692 275.517 129.192C275.291 129.691 275.174 130.226 275.175 130.767V131.892H232.387V75.1004H342.829V131.892ZM348.565 131.892V75.1004H378.365L373.869 131.892H348.565Z" fill="#263A41"/>
<path d="M0.565979 289.144C6.89724 295.997 13.7452 302.438 21.0598 308.418L553.506 309.084C560.821 303.103 567.669 296.663 574 289.81L0.565979 289.144Z" fill="#263A41"/>
<path d="M361.635 227.426V284.486C361.636 285.213 361.952 285.911 362.515 286.425C363.078 286.939 363.841 287.228 364.637 287.229H457.198C457.994 287.228 458.757 286.939 459.32 286.425C459.883 285.911 460.199 285.214 460.2 284.486V227.426C460.198 226.699 459.881 226.003 459.318 225.49C458.756 224.976 457.993 224.688 457.198 224.687H364.637C363.842 224.688 363.079 224.976 362.517 225.49C361.954 226.003 361.637 226.699 361.635 227.426Z" fill="#2D2B3D"/>
<path d="M363.807 228.136V283.782C363.807 284.171 363.977 284.543 364.277 284.818C364.578 285.093 364.986 285.247 365.411 285.248H456.427C456.853 285.247 457.26 285.093 457.561 284.818C457.862 284.543 458.031 284.171 458.032 283.782V228.136C458.032 227.747 457.863 227.374 457.562 227.099C457.261 226.823 456.853 226.668 456.427 226.667H365.411C364.985 226.668 364.577 226.823 364.276 227.099C363.976 227.374 363.807 227.747 363.807 228.136V228.136Z" fill="#263A41"/>
<path d="M359.699 295.615C359.869 295.809 360.084 295.965 360.33 296.073C360.575 296.18 360.844 296.235 361.116 296.234H460.227C460.498 296.233 460.765 296.178 461.01 296.071C461.254 295.965 461.47 295.809 461.641 295.617C461.811 295.425 461.933 295.2 461.997 294.96C462.061 294.719 462.065 294.468 462.009 294.226L460.471 287.55C460.407 287.278 460.27 287.024 460.071 286.813C459.873 286.602 459.62 286.439 459.335 286.34C459.129 286.266 458.909 286.228 458.688 286.228H362.648C362.427 286.228 362.207 286.266 362.001 286.34C361.716 286.439 361.463 286.602 361.265 286.813C361.066 287.024 360.929 287.278 360.865 287.55L359.327 294.226C359.272 294.468 359.277 294.718 359.342 294.959C359.406 295.199 359.528 295.423 359.699 295.615V295.615Z" fill="#1D2C33"/>
<path d="M455.287 289.104H457.628C457.825 289.104 457.984 288.958 457.984 288.779V287.755C457.984 287.576 457.825 287.43 457.628 287.43H455.287C455.091 287.43 454.931 287.576 454.931 287.755V288.779C454.931 288.958 455.091 289.104 455.287 289.104Z" fill="#263A41"/>
<path d="M449.182 289.104H451.523C451.72 289.104 451.879 288.958 451.879 288.779V287.755C451.879 287.576 451.72 287.43 451.523 287.43H449.182C448.986 287.43 448.826 287.576 448.826 287.755V288.779C448.826 288.958 448.986 289.104 449.182 289.104Z" fill="#263A41"/>
<path d="M443.077 289.104H445.418C445.614 289.104 445.774 288.958 445.774 288.779V287.755C445.774 287.576 445.614 287.43 445.418 287.43H443.077C442.88 287.43 442.721 287.576 442.721 287.755V288.779C442.721 288.958 442.88 289.104 443.077 289.104Z" fill="#263A41"/>
<path d="M436.972 289.104H439.313C439.509 289.104 439.669 288.958 439.669 288.779V287.755C439.669 287.576 439.509 287.43 439.313 287.43H436.972C436.775 287.43 436.616 287.576 436.616 287.755V288.779C436.616 288.958 436.775 289.104 436.972 289.104Z" fill="#263A41"/>
<path d="M430.867 289.104H433.208C433.404 289.104 433.563 288.958 433.563 288.779V287.755C433.563 287.576 433.404 287.43 433.208 287.43H430.867C430.67 287.43 430.511 287.576 430.511 287.755V288.779C430.511 288.958 430.67 289.104 430.867 289.104Z" fill="#263A41"/>
<path d="M424.762 289.104H427.103C427.299 289.104 427.458 288.958 427.458 288.779V287.755C427.458 287.576 427.299 287.43 427.103 287.43H424.762C424.565 287.43 424.406 287.576 424.406 287.755V288.779C424.406 288.958 424.565 289.104 424.762 289.104Z" fill="#263A41"/>
<path d="M418.656 289.104H420.997C421.194 289.104 421.353 288.958 421.353 288.779V287.755C421.353 287.576 421.194 287.43 420.997 287.43H418.656C418.46 287.43 418.301 287.576 418.301 287.755V288.779C418.301 288.958 418.46 289.104 418.656 289.104Z" fill="#263A41"/>
<path d="M412.551 289.104H414.892C415.089 289.104 415.248 288.958 415.248 288.779V287.755C415.248 287.576 415.089 287.43 414.892 287.43H412.551C412.355 287.43 412.195 287.576 412.195 287.755V288.779C412.195 288.958 412.355 289.104 412.551 289.104Z" fill="#263A41"/>
<path d="M406.446 289.104H408.787C408.984 289.104 409.143 288.958 409.143 288.779V287.755C409.143 287.576 408.984 287.43 408.787 287.43H406.446C406.25 287.43 406.09 287.576 406.09 287.755V288.779C406.09 288.958 406.25 289.104 406.446 289.104Z" fill="#263A41"/>
<path d="M400.341 289.104H402.682C402.879 289.104 403.038 288.958 403.038 288.779V287.755C403.038 287.576 402.879 287.43 402.682 287.43H400.341C400.145 287.43 399.985 287.576 399.985 287.755V288.779C399.985 288.958 400.145 289.104 400.341 289.104Z" fill="#263A41"/>
<path d="M394.236 289.104H396.577C396.773 289.104 396.933 288.958 396.933 288.779V287.755C396.933 287.576 396.773 287.43 396.577 287.43H394.236C394.039 287.43 393.88 287.576 393.88 287.755V288.779C393.88 288.958 394.039 289.104 394.236 289.104Z" fill="#263A41"/>
<path d="M388.131 289.104H390.472C390.668 289.104 390.828 288.958 390.828 288.779V287.755C390.828 287.576 390.668 287.43 390.472 287.43H388.131C387.934 287.43 387.775 287.576 387.775 287.755V288.779C387.775 288.958 387.934 289.104 388.131 289.104Z" fill="#263A41"/>
<path d="M382.026 289.104H384.367C384.563 289.104 384.722 288.958 384.722 288.779V287.755C384.722 287.576 384.563 287.43 384.367 287.43H382.026C381.829 287.43 381.67 287.576 381.67 287.755V288.779C381.67 288.958 381.829 289.104 382.026 289.104Z" fill="#263A41"/>
<path d="M375.92 289.104H378.261C378.458 289.104 378.617 288.958 378.617 288.779V287.755C378.617 287.576 378.458 287.43 378.261 287.43H375.92C375.724 287.43 375.565 287.576 375.565 287.755V288.779C375.565 288.958 375.724 289.104 375.92 289.104Z" fill="#263A41"/>
<path d="M369.815 289.104H372.156C372.353 289.104 372.512 288.958 372.512 288.779V287.755C372.512 287.576 372.353 287.43 372.156 287.43H369.815C369.619 287.43 369.46 287.576 369.46 287.755V288.779C369.46 288.958 369.619 289.104 369.815 289.104Z" fill="#263A41"/>
<path d="M363.71 289.104H366.051C366.248 289.104 366.407 288.958 366.407 288.779V287.755C366.407 287.576 366.248 287.43 366.051 287.43H363.71C363.514 287.43 363.354 287.576 363.354 287.755V288.779C363.354 288.958 363.514 289.104 363.71 289.104Z" fill="#263A41"/>
<path d="M455.359 291.892H457.7C457.897 291.892 458.056 291.747 458.056 291.567V290.544C458.056 290.365 457.897 290.219 457.7 290.219H455.359C455.163 290.219 455.004 290.365 455.004 290.544V291.567C455.004 291.747 455.163 291.892 455.359 291.892Z" fill="#263A41"/>
<path d="M449.254 291.892H451.595C451.792 291.892 451.951 291.747 451.951 291.567V290.544C451.951 290.365 451.792 290.219 451.595 290.219H449.254C449.058 290.219 448.898 290.365 448.898 290.544V291.567C448.898 291.747 449.058 291.892 449.254 291.892Z" fill="#263A41"/>
<path d="M443.149 291.892H445.49C445.687 291.892 445.846 291.747 445.846 291.567V290.544C445.846 290.365 445.687 290.219 445.49 290.219H443.149C442.953 290.219 442.793 290.365 442.793 290.544V291.567C442.793 291.747 442.953 291.892 443.149 291.892Z" fill="#263A41"/>
<path d="M437.044 291.892H439.385C439.581 291.892 439.741 291.747 439.741 291.567V290.544C439.741 290.365 439.581 290.219 439.385 290.219H437.044C436.847 290.219 436.688 290.365 436.688 290.544V291.567C436.688 291.747 436.847 291.892 437.044 291.892Z" fill="#263A41"/>
<path d="M430.939 291.892H433.28C433.476 291.892 433.636 291.747 433.636 291.567V290.544C433.636 290.365 433.476 290.219 433.28 290.219H430.939C430.742 290.219 430.583 290.365 430.583 290.544V291.567C430.583 291.747 430.742 291.892 430.939 291.892Z" fill="#263A41"/>
<path d="M424.834 291.892H427.175C427.371 291.892 427.531 291.747 427.531 291.567V290.544C427.531 290.365 427.371 290.219 427.175 290.219H424.834C424.637 290.219 424.478 290.365 424.478 290.544V291.567C424.478 291.747 424.637 291.892 424.834 291.892Z" fill="#263A41"/>
<path d="M418.729 291.892H421.07C421.266 291.892 421.425 291.747 421.425 291.567V290.544C421.425 290.365 421.266 290.219 421.07 290.219H418.729C418.532 290.219 418.373 290.365 418.373 290.544V291.567C418.373 291.747 418.532 291.892 418.729 291.892Z" fill="#263A41"/>
<path d="M412.623 291.892H414.964C415.161 291.892 415.32 291.747 415.32 291.567V290.544C415.32 290.365 415.161 290.219 414.964 290.219H412.623C412.427 290.219 412.268 290.365 412.268 290.544V291.567C412.268 291.747 412.427 291.892 412.623 291.892Z" fill="#263A41"/>
<path d="M406.518 291.892H408.859C409.056 291.892 409.215 291.747 409.215 291.567V290.544C409.215 290.365 409.056 290.219 408.859 290.219H406.518C406.322 290.219 406.163 290.365 406.163 290.544V291.567C406.163 291.747 406.322 291.892 406.518 291.892Z" fill="#263A41"/>
<path d="M400.413 291.892H402.754C402.951 291.892 403.11 291.747 403.11 291.567V290.544C403.11 290.365 402.951 290.219 402.754 290.219H400.413C400.217 290.219 400.057 290.365 400.057 290.544V291.567C400.057 291.747 400.217 291.892 400.413 291.892Z" fill="#263A41"/>
<path d="M394.308 291.892H396.649C396.845 291.892 397.005 291.747 397.005 291.567V290.544C397.005 290.365 396.845 290.219 396.649 290.219H394.308C394.112 290.219 393.952 290.365 393.952 290.544V291.567C393.952 291.747 394.112 291.892 394.308 291.892Z" fill="#263A41"/>
<path d="M388.203 291.892H390.544C390.74 291.892 390.9 291.747 390.9 291.567V290.544C390.9 290.365 390.74 290.219 390.544 290.219H388.203C388.006 290.219 387.847 290.365 387.847 290.544V291.567C387.847 291.747 388.006 291.892 388.203 291.892Z" fill="#263A41"/>
<path d="M382.098 291.892H384.439C384.635 291.892 384.795 291.747 384.795 291.567V290.544C384.795 290.365 384.635 290.219 384.439 290.219H382.098C381.901 290.219 381.742 290.365 381.742 290.544V291.567C381.742 291.747 381.901 291.892 382.098 291.892Z" fill="#263A41"/>
<path d="M375.993 291.892H378.334C378.53 291.892 378.689 291.747 378.689 291.567V290.544C378.689 290.365 378.53 290.219 378.334 290.219H375.993C375.796 290.219 375.637 290.365 375.637 290.544V291.567C375.637 291.747 375.796 291.892 375.993 291.892Z" fill="#263A41"/>
<path d="M369.887 291.892H372.228C372.425 291.892 372.584 291.747 372.584 291.567V290.544C372.584 290.365 372.425 290.219 372.228 290.219H369.887C369.691 290.219 369.532 290.365 369.532 290.544V291.567C369.532 291.747 369.691 291.892 369.887 291.892Z" fill="#263A41"/>
<path d="M363.782 291.892H366.123C366.32 291.892 366.479 291.747 366.479 291.567V290.544C366.479 290.365 366.32 290.219 366.123 290.219H363.782C363.586 290.219 363.427 290.365 363.427 290.544V291.567C363.427 291.747 363.586 291.892 363.782 291.892Z" fill="#263A41"/>
<path d="M404.687 295.239H428.396C428.592 295.239 428.752 295.093 428.752 294.914V293.89C428.752 293.711 428.592 293.565 428.396 293.565H404.687C404.49 293.565 404.331 293.711 404.331 293.89V294.914C404.331 295.093 404.49 295.239 404.687 295.239Z" fill="#263A41"/>
<path d="M379.568 238.841H377.495C376.867 238.841 376.358 239.307 376.358 239.881C376.358 240.455 376.867 240.92 377.495 240.92H379.568C380.196 240.92 380.706 240.455 380.706 239.881C380.706 239.307 380.196 238.841 379.568 238.841Z" fill="white"/>
<path d="M403.271 238.841H401.198C400.57 238.841 400.06 239.307 400.06 239.881C400.06 240.455 400.57 240.92 401.198 240.92H403.271C403.899 240.92 404.408 240.455 404.408 239.881C404.408 239.307 403.899 238.841 403.271 238.841Z" fill="white"/>
<path d="M409.986 238.841H407.914C407.286 238.841 406.776 239.307 406.776 239.881C406.776 240.455 407.286 240.92 407.914 240.92H409.986C410.615 240.92 411.124 240.455 411.124 239.881C411.124 239.307 410.615 238.841 409.986 238.841Z" fill="white"/>
<path d="M396.823 238.668H383.943C383.314 238.668 382.805 239.133 382.805 239.707C382.805 240.281 383.314 240.747 383.943 240.747H396.823C397.452 240.747 397.961 240.281 397.961 239.707C397.961 239.133 397.452 238.668 396.823 238.668Z" fill="white"/>
<path d="M428.427 238.668H415.546C414.918 238.668 414.409 239.133 414.409 239.707C414.409 240.281 414.918 240.747 415.546 240.747H428.427C429.055 240.747 429.565 240.281 429.565 239.707C429.565 239.133 429.055 238.668 428.427 238.668Z" fill="white"/>
<path d="M385.889 243.533H383.816C383.188 243.533 382.678 243.998 382.678 244.572C382.678 245.146 383.188 245.612 383.816 245.612H385.889C386.517 245.612 387.026 245.146 387.026 244.572C387.026 243.998 386.517 243.533 385.889 243.533Z" fill="white"/>
<path d="M409.591 243.533H407.519C406.89 243.533 406.381 243.998 406.381 244.572C406.381 245.146 406.89 245.612 407.519 245.612H409.591C410.22 245.612 410.729 245.146 410.729 244.572C410.729 243.998 410.22 243.533 409.591 243.533Z" fill="white"/>
<path d="M416.307 243.533H414.235C413.606 243.533 413.097 243.998 413.097 244.572C413.097 245.146 413.606 245.612 414.235 245.612H416.307C416.935 245.612 417.445 245.146 417.445 244.572C417.445 243.998 416.935 243.533 416.307 243.533Z" fill="white"/>
<path d="M403.144 243.36H390.263C389.635 243.36 389.126 243.825 389.126 244.399C389.126 244.973 389.635 245.438 390.263 245.438H403.144C403.772 245.438 404.282 244.973 404.282 244.399C404.282 243.825 403.772 243.36 403.144 243.36Z" fill="white"/>
<path d="M434.748 243.36H421.867C421.239 243.36 420.729 243.825 420.729 244.399C420.729 244.973 421.239 245.438 421.867 245.438H434.748C435.376 245.438 435.885 244.973 435.885 244.399C435.885 243.825 435.376 243.36 434.748 243.36Z" fill="white"/>
<path d="M392.209 248.224H390.137C389.508 248.224 388.999 248.69 388.999 249.264C388.999 249.838 389.508 250.303 390.137 250.303H392.209C392.838 250.303 393.347 249.838 393.347 249.264C393.347 248.69 392.838 248.224 392.209 248.224Z" fill="white"/>
<path d="M415.912 248.224H413.84C413.211 248.224 412.702 248.69 412.702 249.264C412.702 249.838 413.211 250.303 413.84 250.303H415.912C416.54 250.303 417.05 249.838 417.05 249.264C417.05 248.69 416.54 248.224 415.912 248.224Z" fill="white"/>
<path d="M422.628 248.224H420.555C419.927 248.224 419.418 248.69 419.418 249.264C419.418 249.838 419.927 250.303 420.555 250.303H422.628C423.256 250.303 423.766 249.838 423.766 249.264C423.766 248.69 423.256 248.224 422.628 248.224Z" fill="white"/>
<path d="M409.465 248.051H396.584C395.956 248.051 395.446 248.517 395.446 249.091C395.446 249.665 395.956 250.13 396.584 250.13H409.465C410.093 250.13 410.603 249.665 410.603 249.091C410.603 248.517 410.093 248.051 409.465 248.051Z" fill="white"/>
<path d="M441.069 248.051H428.188C427.559 248.051 427.05 248.517 427.05 249.091C427.05 249.665 427.559 250.13 428.188 250.13H441.069C441.697 250.13 442.206 249.665 442.206 249.091C442.206 248.517 441.697 248.051 441.069 248.051Z" fill="white"/>
<path d="M398.53 252.916H396.458C395.829 252.916 395.32 253.381 395.32 253.955C395.32 254.529 395.829 254.995 396.458 254.995H398.53C399.158 254.995 399.668 254.529 399.668 253.955C399.668 253.381 399.158 252.916 398.53 252.916Z" fill="white"/>
<path d="M422.233 252.916H420.16C419.532 252.916 419.023 253.381 419.023 253.955C419.023 254.529 419.532 254.995 420.16 254.995H422.233C422.861 254.995 423.371 254.529 423.371 253.955C423.371 253.381 422.861 252.916 422.233 252.916Z" fill="white"/>
<path d="M428.949 252.916H426.876C426.248 252.916 425.738 253.381 425.738 253.955C425.738 254.529 426.248 254.995 426.876 254.995H428.949C429.577 254.995 430.086 254.529 430.086 253.955C430.086 253.381 429.577 252.916 428.949 252.916Z" fill="white"/>
<path d="M415.786 252.743H402.905C402.276 252.743 401.767 253.208 401.767 253.782C401.767 254.356 402.276 254.821 402.905 254.821H415.786C416.414 254.821 416.923 254.356 416.923 253.782C416.923 253.208 416.414 252.743 415.786 252.743Z" fill="white"/>
<path d="M403.271 271.572H401.198C400.57 271.572 400.06 272.037 400.06 272.611C400.06 273.185 400.57 273.65 401.198 273.65H403.271C403.899 273.65 404.408 273.185 404.408 272.611C404.408 272.037 403.899 271.572 403.271 271.572Z" fill="white"/>
<path d="M409.986 271.572H407.914C407.286 271.572 406.776 272.037 406.776 272.611C406.776 273.185 407.286 273.65 407.914 273.65H409.986C410.615 273.65 411.124 273.185 411.124 272.611C411.124 272.037 410.615 271.572 409.986 271.572Z" fill="white"/>
<path d="M428.427 271.745H415.546C414.918 271.745 414.409 272.21 414.409 272.784C414.409 273.358 414.918 273.824 415.546 273.824H428.427C429.055 273.824 429.565 273.358 429.565 272.784C429.565 272.21 429.055 271.745 428.427 271.745Z" fill="white"/>
<path d="M379.568 271.572H377.495C376.867 271.572 376.358 272.037 376.358 272.611C376.358 273.185 376.867 273.65 377.495 273.65H379.568C380.196 273.65 380.706 273.185 380.706 272.611C380.706 272.037 380.196 271.572 379.568 271.572Z" fill="white"/>
<path d="M396.823 271.745H383.943C383.314 271.745 382.805 272.21 382.805 272.784C382.805 273.358 383.314 273.824 383.943 273.824H396.823C397.452 273.824 397.961 273.358 397.961 272.784C397.961 272.21 397.452 271.745 396.823 271.745Z" fill="white"/>
<path d="M385.889 266.88H383.816C383.188 266.88 382.678 267.345 382.678 267.919C382.678 268.493 383.188 268.959 383.816 268.959H385.889C386.517 268.959 387.026 268.493 387.026 267.919C387.026 267.345 386.517 266.88 385.889 266.88Z" fill="white"/>
<path d="M409.591 266.88H407.519C406.89 266.88 406.381 267.345 406.381 267.919C406.381 268.493 406.89 268.959 407.519 268.959H409.591C410.22 268.959 410.729 268.493 410.729 267.919C410.729 267.345 410.22 266.88 409.591 266.88Z" fill="white"/>
<path d="M416.307 266.88H414.235C413.606 266.88 413.097 267.345 413.097 267.919C413.097 268.493 413.606 268.959 414.235 268.959H416.307C416.935 268.959 417.445 268.493 417.445 267.919C417.445 267.345 416.935 266.88 416.307 266.88Z" fill="white"/>
<path d="M403.144 267.053H390.263C389.635 267.053 389.126 267.519 389.126 268.093C389.126 268.667 389.635 269.132 390.263 269.132H403.144C403.772 269.132 404.282 268.667 404.282 268.093C404.282 267.519 403.772 267.053 403.144 267.053Z" fill="white"/>
<path d="M392.209 262.189H390.137C389.508 262.189 388.999 262.654 388.999 263.228C388.999 263.802 389.508 264.267 390.137 264.267H392.209C392.838 264.267 393.347 263.802 393.347 263.228C393.347 262.654 392.838 262.189 392.209 262.189Z" fill="white"/>
<path d="M415.912 262.189H413.84C413.211 262.189 412.702 262.654 412.702 263.228C412.702 263.802 413.211 264.267 413.84 264.267H415.912C416.54 264.267 417.05 263.802 417.05 263.228C417.05 262.654 416.54 262.189 415.912 262.189Z" fill="white"/>
<path d="M422.628 262.189H420.555C419.927 262.189 419.418 262.654 419.418 263.228C419.418 263.802 419.927 264.267 420.555 264.267H422.628C423.256 264.267 423.766 263.802 423.766 263.228C423.766 262.654 423.256 262.189 422.628 262.189Z" fill="white"/>
<path d="M409.465 262.362H396.584C395.956 262.362 395.446 262.827 395.446 263.401C395.446 263.975 395.956 264.44 396.584 264.44H409.465C410.093 264.44 410.603 263.975 410.603 263.401C410.603 262.827 410.093 262.362 409.465 262.362Z" fill="white"/>
<path d="M398.53 257.497H396.458C395.829 257.497 395.32 257.962 395.32 258.536C395.32 259.11 395.829 259.576 396.458 259.576H398.53C399.158 259.576 399.668 259.11 399.668 258.536C399.668 257.962 399.158 257.497 398.53 257.497Z" fill="white"/>
<path d="M422.233 257.497H420.16C419.532 257.497 419.023 257.962 419.023 258.536C419.023 259.11 419.532 259.576 420.16 259.576H422.233C422.861 259.576 423.371 259.11 423.371 258.536C423.371 257.962 422.861 257.497 422.233 257.497Z" fill="white"/>
<path d="M428.949 257.497H426.876C426.248 257.497 425.738 257.962 425.738 258.536C425.738 259.11 426.248 259.576 426.876 259.576H428.949C429.577 259.576 430.086 259.11 430.086 258.536C430.086 257.962 429.577 257.497 428.949 257.497Z" fill="white"/>
<path d="M415.786 257.67H402.905C402.276 257.67 401.767 258.136 401.767 258.71C401.767 259.284 402.276 259.749 402.905 259.749H415.786C416.414 259.749 416.923 259.284 416.923 258.71C416.923 258.136 416.414 257.67 415.786 257.67Z" fill="white"/>
<path d="M368.549 326.555L358.82 312.506L389.359 290.267L401.963 277.509C403.601 275.852 405.686 274.616 408.01 273.926C410.334 273.235 412.816 273.114 415.208 273.574C417.599 274.034 419.817 275.06 421.639 276.548C423.46 278.036 424.823 279.935 425.59 282.055C426.726 285.197 426.481 288.619 424.908 291.599C423.335 294.579 420.556 296.884 417.157 298.028L397.225 304.736L368.549 326.555Z" fill="#FFB6B6"/>
<path d="M140.27 224.689V292.972H192.634V224.689C192.635 224.198 192.463 223.72 192.144 223.324C191.826 222.929 191.376 222.637 190.863 222.492C190.621 222.419 190.367 222.383 190.112 222.386H142.798C142.467 222.385 142.138 222.444 141.832 222.56C141.525 222.675 141.246 222.845 141.011 223.059C140.777 223.273 140.59 223.527 140.463 223.807C140.336 224.086 140.27 224.386 140.27 224.689V224.689ZM160.705 248.152C160.719 246.805 161.314 245.519 162.361 244.571C163.407 243.624 164.821 243.092 166.295 243.092C167.769 243.092 169.183 243.624 170.229 244.571C171.276 245.519 171.871 246.805 171.885 248.152V256.074C171.877 257.424 171.285 258.716 170.238 259.668C169.19 260.62 167.773 261.155 166.295 261.155C164.817 261.155 163.4 260.62 162.352 259.668C161.305 258.716 160.713 257.424 160.705 256.074V248.152Z" fill="#1D2C33"/>
<path d="M140.109 290.788V297.373C140.11 297.714 140.259 298.041 140.522 298.283C140.785 298.525 141.142 298.662 141.516 298.665H191.388C191.761 298.663 192.119 298.526 192.383 298.284C192.646 298.042 192.794 297.714 192.794 297.373V290.788H140.109Z" fill="#263A41"/>
<path d="M57.8933 121.812V246.487C57.8947 248.076 58.5862 249.599 59.816 250.723C61.0458 251.846 62.7133 252.478 64.4525 252.479H266.694C268.434 252.478 270.101 251.846 271.331 250.723C272.561 249.599 273.252 248.076 273.254 246.487V121.812C273.249 120.225 272.557 118.704 271.327 117.582C270.098 116.46 268.432 115.829 266.694 115.827H64.4525C62.7148 115.829 61.0489 116.46 59.8195 117.582C58.5901 118.704 57.8975 120.225 57.8933 121.812Z" fill="#0E1F26"/>
<path d="M62.6378 123.364V244.949C62.6394 245.798 63.0093 246.612 63.6663 247.212C64.3234 247.812 65.2141 248.15 66.1433 248.151H265.011C265.94 248.15 266.831 247.812 267.488 247.212C268.145 246.612 268.515 245.798 268.516 244.949V123.364C268.516 122.514 268.147 121.699 267.49 121.097C266.833 120.495 265.941 120.156 265.011 120.155H66.1433C65.213 120.156 64.3214 120.495 63.6642 121.097C63.007 121.699 62.6379 122.514 62.6378 123.364Z" fill="#263A41"/>
<path d="M99.5442 298.218C99.7467 298.45 100.004 298.637 100.297 298.765C100.59 298.893 100.91 298.959 101.235 298.957H219.548C219.872 298.957 220.191 298.891 220.483 298.764C220.775 298.636 221.033 298.451 221.236 298.222C221.44 297.992 221.586 297.724 221.662 297.436C221.738 297.149 221.743 296.85 221.676 296.561L219.84 288.591C219.764 288.266 219.6 287.964 219.363 287.711C219.126 287.459 218.824 287.265 218.484 287.146C218.238 287.058 217.976 287.013 217.712 287.013H103.064C102.8 287.013 102.538 287.058 102.292 287.146C101.952 287.265 101.65 287.459 101.413 287.711C101.176 287.964 101.012 288.266 100.936 288.591L99.0997 296.561C99.0343 296.85 99.0403 297.149 99.1172 297.435C99.1941 297.722 99.34 297.99 99.5442 298.218Z" fill="#1D2C33"/>
<path d="M258.557 136.904H72.4775C72.284 136.9 72.1 136.827 71.9647 136.7C71.8295 136.574 71.7537 136.404 71.7537 136.227C71.7537 136.051 71.8295 135.881 71.9647 135.755C72.1 135.628 72.284 135.555 72.4775 135.551H258.557C258.75 135.555 258.934 135.628 259.07 135.755C259.205 135.881 259.281 136.051 259.281 136.227C259.281 136.404 259.205 136.574 259.07 136.7C258.934 136.827 258.75 136.9 258.557 136.904V136.904Z" fill="white"/>
<path d="M85.1441 132.1C87.5392 132.1 89.4808 130.287 89.4808 128.05C89.4808 125.813 87.5392 124 85.1441 124C82.749 124 80.8074 125.813 80.8074 128.05C80.8074 130.287 82.749 132.1 85.1441 132.1Z" fill="#ff6584"/>
<path d="M100.125 132.1C102.52 132.1 104.462 130.287 104.462 128.05C104.462 125.813 102.52 124 100.125 124C97.7303 124 95.7887 125.813 95.7887 128.05C95.7887 130.287 97.7303 132.1 100.125 132.1Z" fill="#ff6584"/>
<path d="M115.107 132.1C117.502 132.1 119.443 130.287 119.443 128.05C119.443 125.813 117.502 124 115.107 124C112.711 124 110.77 125.813 110.77 128.05C110.77 130.287 112.711 132.1 115.107 132.1Z" fill="#ff6584"/>
<path d="M249.536 125.002H238.895C238.685 125.006 238.485 125.085 238.338 125.223C238.191 125.36 238.109 125.545 238.109 125.737C238.109 125.929 238.191 126.114 238.338 126.251C238.485 126.389 238.685 126.468 238.895 126.473H249.536C249.747 126.47 249.949 126.391 250.098 126.254C250.247 126.116 250.33 125.931 250.33 125.737C250.33 125.544 250.247 125.358 250.098 125.221C249.949 125.083 249.747 125.004 249.536 125.002Z" fill="white"/>
<path d="M249.536 127.765H238.895C238.685 127.769 238.484 127.848 238.337 127.986C238.19 128.123 238.108 128.308 238.108 128.5C238.108 128.693 238.19 128.877 238.337 129.015C238.484 129.152 238.685 129.232 238.895 129.236H249.536C249.748 129.234 249.95 129.155 250.099 129.017C250.248 128.88 250.331 128.694 250.331 128.5C250.331 128.307 250.248 128.121 250.099 127.983C249.95 127.845 249.748 127.767 249.536 127.765V127.765Z" fill="white"/>
<path d="M249.536 130.527H238.895C238.685 130.532 238.485 130.611 238.338 130.749C238.191 130.886 238.109 131.071 238.109 131.263C238.109 131.455 238.191 131.64 238.338 131.777C238.485 131.915 238.685 131.994 238.895 131.999H249.536C249.747 131.996 249.949 131.917 250.098 131.78C250.247 131.642 250.33 131.457 250.33 131.263C250.33 131.07 250.247 130.884 250.098 130.747C249.949 130.609 249.747 130.53 249.536 130.527V130.527Z" fill="white"/>
<path d="M506.058 293.678C506.379 294.532 506.988 295.271 507.798 295.789C508.608 296.307 509.576 296.578 510.564 296.562L529.872 296.108C530.867 296.09 531.83 295.778 532.615 295.22C533.401 294.661 533.968 293.885 534.231 293.007L536.963 266.318C537.932 266.719 538.987 266.917 540.051 266.898C540.976 266.876 541.886 266.689 542.732 266.346C543.577 266.004 544.34 265.512 544.977 264.9C545.614 264.288 546.113 263.567 546.445 262.779C546.778 261.991 546.937 261.15 546.914 260.306C546.89 259.461 546.685 258.629 546.31 257.857C545.935 257.085 545.397 256.388 544.727 255.806C544.057 255.224 543.268 254.768 542.405 254.465C541.542 254.161 540.622 254.016 539.698 254.037C539.273 254.036 538.848 254.076 538.433 254.157C537.98 253.71 537.431 253.355 536.819 253.113C536.207 252.872 535.547 252.751 534.88 252.757L505.181 253.458C504.935 253.466 504.69 253.494 504.449 253.541C503.798 253.652 503.18 253.889 502.637 254.236C502.095 254.583 501.64 255.033 501.303 255.554C500.967 256.075 500.756 256.657 500.686 257.258C500.616 257.86 500.688 258.469 500.897 259.043L506.058 293.678ZM537.523 264.506L539.467 258.146C539.688 257.411 539.693 256.636 539.482 255.899C539.576 255.899 539.66 255.858 539.754 255.858C541.087 255.832 542.377 256.291 543.34 257.133C544.303 257.975 544.862 259.132 544.893 260.35C544.924 261.567 544.426 262.747 543.506 263.629C542.587 264.512 541.323 265.025 539.99 265.057C539.128 265.081 538.275 264.891 537.523 264.506Z" fill="#1D2C33"/>
<path d="M504.449 253.541C505.082 256.846 512.195 259.169 520.749 258.765C528.615 258.434 535.046 255.911 536.225 252.921C535.788 252.803 535.335 252.748 534.88 252.757L505.181 253.457C504.935 253.466 504.69 253.494 504.449 253.541V253.541Z" fill="#263A41"/>
<path d="M522.317 279.012C522.356 279.003 522.393 278.988 522.427 278.968L526.62 276.461C526.67 276.431 526.712 276.389 526.741 276.341C526.77 276.292 526.785 276.238 526.785 276.182C526.785 276.127 526.77 276.073 526.741 276.024C526.712 275.976 526.671 275.934 526.62 275.904L522.262 273.296C522.222 273.272 522.177 273.255 522.13 273.247C522.083 273.239 522.034 273.239 521.987 273.248C521.94 273.257 521.896 273.274 521.856 273.299C521.817 273.323 521.783 273.355 521.756 273.391C521.73 273.428 521.712 273.469 521.703 273.512C521.694 273.555 521.695 273.599 521.704 273.642C521.714 273.685 521.733 273.726 521.76 273.762C521.788 273.798 521.822 273.829 521.862 273.853L525.755 276.182L522.028 278.411C521.956 278.454 521.903 278.519 521.878 278.595C521.853 278.67 521.859 278.751 521.894 278.823C521.928 278.895 521.99 278.954 522.067 278.988C522.145 279.023 522.233 279.031 522.317 279.012H522.317Z" fill="#263A41"/>
<path d="M515.694 279.291C515.765 279.275 515.828 279.24 515.876 279.19C515.925 279.141 515.956 279.079 515.966 279.014C515.976 278.948 515.964 278.881 515.932 278.822C515.9 278.762 515.849 278.713 515.786 278.68L511.921 276.655L515.657 274.121C515.695 274.095 515.728 274.062 515.752 274.024C515.777 273.987 515.793 273.945 515.8 273.902C515.807 273.859 515.804 273.815 515.793 273.772C515.781 273.73 515.76 273.69 515.732 273.655C515.703 273.62 515.668 273.591 515.627 273.568C515.586 273.546 515.54 273.531 515.493 273.524C515.445 273.518 515.397 273.52 515.351 273.531C515.304 273.542 515.261 273.561 515.222 273.587L511.04 276.425C510.992 276.458 510.953 276.501 510.927 276.551C510.901 276.601 510.89 276.656 510.893 276.711C510.897 276.767 510.916 276.82 510.947 276.867C510.979 276.914 511.023 276.953 511.076 276.98L515.423 279.257C515.505 279.3 515.603 279.312 515.694 279.291V279.291Z" fill="#263A41"/>
<path d="M521.9 281.209C521.935 281.201 521.969 281.188 522 281.171C522.04 281.148 522.076 281.118 522.104 281.083C522.133 281.048 522.153 281.007 522.164 280.965C522.176 280.923 522.178 280.878 522.17 280.835C522.163 280.792 522.147 280.75 522.122 280.713L516.178 271.786C516.128 271.711 516.046 271.657 515.953 271.636C515.859 271.615 515.76 271.63 515.677 271.675C515.595 271.721 515.536 271.795 515.513 271.881C515.49 271.967 515.505 272.057 515.555 272.133L521.499 281.06C521.539 281.12 521.6 281.168 521.672 281.195C521.745 281.222 521.824 281.227 521.9 281.209Z" fill="#263A41"/>
<path d="M187.751 173.654H155.544C154.23 173.654 153.165 174.627 153.165 175.828V178.702C153.165 179.902 154.23 180.875 155.544 180.875H187.751C189.064 180.875 190.129 179.902 190.129 178.702V175.828C190.129 174.627 189.064 173.654 187.751 173.654Z" fill="white"/>
<path d="M206.523 188.096H136.771C135.458 188.096 134.393 189.069 134.393 190.27V193.144C134.393 194.344 135.458 195.317 136.771 195.317H206.523C207.837 195.317 208.902 194.344 208.902 193.144V190.27C208.902 189.069 207.837 188.096 206.523 188.096Z" fill="#E6E6E6"/>
<path d="M206.523 202.538H136.771C135.458 202.538 134.393 203.511 134.393 204.711V207.586C134.393 208.786 135.458 209.759 136.771 209.759H206.523C207.837 209.759 208.902 208.786 208.902 207.586V204.711C208.902 203.511 207.837 202.538 206.523 202.538Z" fill="#E6E6E6"/>
<path d="M212.436 250.898L212.594 251.354L212.602 251.369L217.358 264.577L222.829 279.797L233.121 308.4L233.221 312.843V312.858L233.986 348.601L231.866 353.446L234.252 361.391C234.252 361.391 233.154 349.382 227.268 356.278C223.934 360.197 220.035 364.207 216.834 367.967C221.498 369.691 226.237 371.251 231.051 372.645C232.09 372.949 233.138 373.238 234.185 373.527C234.41 373.587 234.634 373.648 234.859 373.709C250.816 378.02 267.312 380.442 283.944 380.916C284.809 380.939 285.657 380.954 286.48 380.97C286.771 380.977 287.053 380.985 287.336 380.985C288.267 380.992 289.19 381 290.121 381C292 381 293.871 380.975 295.733 380.924C309.517 380.569 323.221 378.876 336.613 375.873C336.521 370.823 336.272 364.921 335.914 358.617C335.748 355.526 332.015 352.177 331.791 348.941C331.633 346.511 334.983 344.225 334.809 341.756C333.678 326.559 332.264 332.393 331.217 321.631C331.109 320.575 331.009 319.565 330.918 318.6C330.244 311.689 329.779 307.367 329.779 307.367L334.251 281.612L341.277 241.176L340.736 240.364L340.129 240.09L303.074 223.336L301.062 218.627C300.476 217.27 299.459 216.105 298.142 215.28C296.825 214.456 295.268 214.011 293.671 214.001L269.262 213.91C267.995 213.905 266.745 214.176 265.616 214.7C264.487 215.224 263.51 215.987 262.769 216.925L256.159 225.287L212.436 250.898Z" fill="#0E1F26"/>
<path d="M238.75 302.035L233.221 312.843L229.446 320.225L222.953 351.282L219.703 354.434L216.917 343.275L187.767 349.188C186.811 344.335 187.511 349.352 186.921 344.028C187.087 343.876 187.262 343.725 187.436 343.573C187.902 343.178 188.293 342.806 188.284 342.449C187.952 324.084 188.949 292.83 197.28 273.896C198.585 270.804 200.305 267.873 202.401 265.169C202.568 264.964 202.726 264.759 202.883 264.554C206.725 259.64 209.152 254.802 212.594 251.361V251.354C212.616 251.338 212.635 251.32 212.652 251.3C212.665 251.295 212.676 251.287 212.686 251.278L236.33 239.824L237.345 265.86L238.068 284.574L238.75 302.035Z" fill="#0E1F26"/>
<path d="M324.008 305.105L330.914 318.604L333.325 323.305L339.816 354.358L343.056 357.502L345.848 346.347L347.159 346.101L370.815 341.626L377.71 361.63C379.264 359.264 379.876 356.481 379.443 353.751C379.01 351.021 377.558 348.511 375.333 346.646C374.862 346.257 374.47 345.878 374.481 345.519C374.874 323.919 373.427 284.478 360.366 268.245C356.218 263.093 353.729 257.962 350.108 254.377C350.097 254.367 350.097 254.357 350.086 254.357L341.274 241.175L340.735 240.366L340.13 240.09L324.008 305.105Z" fill="#0E1F26"/>
<path d="M282.172 207.564C300.107 207.564 314.646 194.282 314.646 177.898C314.646 161.514 300.107 148.232 282.172 148.232C264.237 148.232 249.698 161.514 249.698 177.898C249.698 194.282 264.237 207.564 282.172 207.564Z" fill="#FFB6B6"/>
<path d="M326.064 157.176C325.812 156.93 325.509 156.734 325.172 156.598C324.835 156.461 324.472 156.389 324.104 156.384L324.592 155.145C324.751 154.755 324.794 154.334 324.717 153.923C324.639 153.513 324.443 153.129 324.149 152.811C323.856 152.492 323.475 152.251 323.045 152.111C322.616 151.972 322.154 151.939 321.706 152.016L319.928 152.329L320.095 151.244C320.159 150.84 320.107 150.427 319.944 150.047C319.781 149.667 319.512 149.332 319.165 149.075C318.817 148.819 318.402 148.649 317.961 148.583C317.519 148.518 317.067 148.558 316.648 148.701C316.267 148.838 315.857 148.895 315.448 148.869C315.04 148.842 314.643 148.732 314.287 148.548C313.929 148.368 313.619 148.12 313.377 147.82C313.135 147.52 312.968 147.175 312.887 146.81L312.268 144.08L312.202 143.934C309.185 139.34 303.384 135.997 296.285 134.772C289.967 133.674 283.488 134.233 277.242 134.759C274.764 134.972 271.965 135.212 269.633 136.517C267.651 137.635 265.975 139.872 266.317 142.129C260.159 140.405 253.556 143.847 250.284 148.188C246.406 153.354 245.772 159.826 245.67 164.886C245.393 176.857 248.097 186.65 253.687 194.001C254.095 194.533 254.197 195.645 255.006 196.018L254.838 195.772C255.742 196.184 256.66 196.85 256.318 197.563C255.334 199.613 261.871 204.147 266.477 205.645C274.88 208.382 286.053 208.149 293.909 207.163L294.186 205.465C297.021 205.113 299.018 204.44 299.579 203.388C300.571 202.616 301.416 201.923 302.152 201.284L302.159 201.278C302.174 201.264 302.203 201.244 302.218 201.231C305.767 198.122 306.591 196.351 306.962 193.654C307.319 191.011 306.685 188.328 306.037 185.911C319.694 187.842 300.658 172.622 313.383 169.68C313.529 169.638 313.677 169.605 313.828 169.58C314.199 169.5 314.571 169.42 314.928 169.327C316.649 168.9 318.298 168.257 319.826 167.416C323.382 165.439 324.555 162.815 326.392 159.859C326.657 159.438 326.768 158.951 326.709 158.469C326.65 157.986 326.424 157.533 326.064 157.176V157.176Z" fill="#1D2C33"/>
<path d="M397.027 307.217C397.02 308.382 397.005 310.013 396.947 312.031C396.94 312.31 396.933 312.597 396.925 312.89C396.83 316.598 396.736 319.707 396.583 323.163C396.575 323.402 396.568 323.635 396.554 323.875C396.349 328.695 396.029 334.308 395.475 343.196C394.447 359.614 392.654 345.453 390.854 351.212C390.767 351.498 390.672 351.838 390.585 352.238C390.312 353.687 389.852 355.102 389.215 356.452C388.26 356.971 387.276 357.471 386.307 357.97C383.544 359.375 380.739 360.726 377.911 362.011C376.322 362.73 374.726 363.436 373.123 364.115C372.868 364.222 372.62 364.328 372.372 364.428C364.161 367.897 355.7 370.847 347.046 373.256C345.355 373.722 343.672 374.175 341.967 374.595C340.188 375.047 338.41 375.473 336.61 375.873C323.218 378.876 309.515 380.57 295.731 380.926C293.873 380.979 292 380.999 290.12 380.999C289.187 380.999 288.269 380.993 287.336 380.986C287.051 380.986 286.767 380.979 286.483 380.973C285.659 380.953 284.807 380.939 283.947 380.919C267.315 380.446 250.818 378.022 234.862 373.709L234.184 373.529C233.135 373.236 232.093 372.95 231.051 372.644C226.24 371.252 221.501 369.694 216.832 367.97C213.268 366.658 209.745 365.251 206.264 363.749C206.232 363.741 206.203 363.727 206.177 363.709C205.448 363.403 204.712 363.083 203.983 362.757C203.888 362.71 203.786 362.664 203.684 362.617C200.966 361.405 198.276 360.136 195.616 358.809C193.379 354.115 190.23 353.216 188.277 349.088C187.709 347.862 187.298 346.58 187.053 345.267C187.053 345.253 187.046 345.24 187.046 345.22C187.25 347.697 186.178 340.826 187.038 345.193C187.031 345.114 187.024 345.027 187.016 344.927C186.995 344.687 186.965 344.395 186.922 344.028C184.422 321.731 184.582 296.232 183.496 275.22C183.423 273.861 183.348 272.561 183.27 271.318C183.249 270.905 183.219 270.499 183.19 270.1C183.241 269.98 183.3 269.853 183.365 269.734C183.379 269.699 183.396 269.666 183.416 269.634C183.438 269.592 183.462 269.552 183.489 269.514C183.504 269.494 183.526 269.467 183.54 269.447C183.551 269.424 183.563 269.402 183.577 269.381C183.642 269.287 183.715 269.188 183.795 269.094C183.832 269.054 183.861 269.021 183.897 268.988C183.922 268.954 183.952 268.923 183.985 268.895C184.007 268.863 184.034 268.834 184.065 268.808C184.094 268.781 184.123 268.748 184.16 268.715C184.175 268.694 184.195 268.676 184.218 268.662C184.275 268.601 184.339 268.545 184.407 268.495C184.667 268.277 184.945 268.076 185.238 267.896C185.34 267.836 185.45 267.776 185.552 267.71C186.286 267.308 187.059 266.969 187.862 266.698C188.139 266.604 188.416 266.518 188.715 266.425C188.824 266.398 188.926 266.365 189.035 266.331C189.196 266.285 189.356 266.238 189.524 266.205C190.354 265.979 191.251 265.785 192.22 265.606C192.337 265.586 192.461 265.566 192.584 265.539C192.759 265.506 192.942 265.479 193.124 265.453C193.372 265.413 193.627 265.373 193.882 265.333C196.046 265.02 198.502 264.787 201.213 264.634C201.469 264.62 201.724 264.607 201.979 264.594C202.278 264.58 202.576 264.567 202.882 264.554C203.137 264.54 203.4 264.534 203.662 264.527C203.917 264.514 204.18 264.507 204.449 264.501C205.185 264.481 205.943 264.461 206.716 264.447C208.917 264.407 211.234 264.421 213.669 264.467C214.798 264.494 215.95 264.52 217.13 264.567C217.211 264.567 217.283 264.574 217.356 264.574C218.384 264.607 219.419 264.647 220.483 264.7C221.226 264.734 221.977 264.767 222.728 264.807C223.435 264.847 224.149 264.887 224.87 264.933C225.431 264.96 225.993 265 226.561 265.033C227.042 265.066 227.523 265.1 228.004 265.126L228.66 265.166C229.017 265.193 229.374 265.213 229.739 265.246C230.54 265.306 231.342 265.366 232.158 265.426C232.967 265.493 233.791 265.559 234.614 265.626C235.438 265.692 236.269 265.766 237.1 265.839C237.187 265.845 237.267 265.852 237.347 265.859C238.105 265.932 238.863 265.999 239.628 266.072C239.803 266.085 239.986 266.098 240.16 266.118C240.89 266.185 241.634 266.264 242.37 266.335C242.596 266.357 242.821 266.379 243.048 266.402C243.624 266.459 244.193 266.509 244.774 266.571C245.539 266.651 246.319 266.724 247.077 266.817C247.667 266.877 248.257 266.937 248.848 267.004C249.773 267.104 250.713 267.21 251.654 267.323C252.011 267.363 252.368 267.403 252.725 267.45C255.407 267.756 258.118 268.096 260.873 268.449C265.049 268.988 269.291 269.574 273.561 270.206C277.839 270.839 282.142 271.507 286.468 272.21C287.562 272.39 288.655 272.57 289.755 272.756C290.251 272.843 290.746 272.929 291.242 273.016C292.087 273.156 292.933 273.302 293.778 273.449C294.624 273.595 295.469 273.742 296.314 273.895C297.32 274.074 298.333 274.254 299.339 274.434C305.964 275.632 312.552 276.911 318.98 278.249C320.037 278.469 321.094 278.695 322.143 278.915C324.242 279.361 326.322 279.813 328.382 280.273C328.95 280.393 329.511 280.519 330.072 280.646C331.472 280.965 332.871 281.285 334.248 281.611L334.489 281.671C335.502 281.897 336.493 282.13 337.484 282.37C339.824 282.929 342.124 283.495 344.386 284.068C345.887 284.447 347.372 284.831 348.839 285.22C351.033 285.799 353.183 286.385 355.274 286.977C355.792 287.124 356.309 287.27 356.819 287.41C358.35 287.843 359.858 288.282 361.323 288.722C362.489 289.068 363.626 289.421 364.749 289.774C365.871 290.127 366.972 290.479 368.05 290.832C368.743 291.059 369.428 291.298 370.113 291.525C371.097 291.858 372.066 292.19 373.013 292.523C373.305 292.623 373.589 292.73 373.873 292.83C374.055 292.903 374.23 292.963 374.405 293.029C374.748 293.156 375.098 293.276 375.433 293.402C375.775 293.522 376.111 293.648 376.446 293.782C376.774 293.901 377.109 294.028 377.43 294.154C377.758 294.274 378.078 294.401 378.399 294.534C378.669 294.634 378.931 294.74 379.186 294.847C379.704 295.053 380.221 295.26 380.724 295.473C380.972 295.579 381.22 295.679 381.467 295.786L382.036 296.025C382.116 296.065 382.196 296.099 382.276 296.132C382.459 296.212 382.648 296.298 382.83 296.378C383.253 296.558 383.668 296.751 384.076 296.931C384.623 297.184 385.155 297.437 385.665 297.683C386.183 297.936 386.686 298.189 387.167 298.435C387.247 298.475 387.32 298.515 387.4 298.555C387.509 298.609 387.618 298.669 387.728 298.722C388.099 298.915 388.457 299.115 388.814 299.308C389.513 299.7 390.176 300.087 390.796 300.473C390.934 300.559 391.066 300.646 391.204 300.726C391.663 301.025 392.101 301.318 392.509 301.618C392.509 301.625 392.509 301.625 392.516 301.625C392.654 301.718 392.786 301.818 392.917 301.911C393.026 302.004 393.143 302.084 393.252 302.177C393.631 302.477 393.981 302.763 394.301 303.056C394.409 303.146 394.511 303.242 394.608 303.342C394.65 303.374 394.689 303.41 394.724 303.449C394.87 303.582 395.001 303.715 395.125 303.848C395.144 303.867 395.161 303.887 395.176 303.908C395.351 304.095 395.511 304.281 395.664 304.467C395.737 304.561 395.817 304.654 395.883 304.747C395.97 304.86 396.058 304.98 396.131 305.093C396.196 305.187 396.255 305.286 396.313 305.38C396.468 305.62 396.599 305.871 396.707 306.132C396.788 306.309 396.854 306.491 396.903 306.678C396.959 306.855 397 307.035 397.027 307.217Z" fill="#1D2C33"/>
<path opacity="0.2" d="M397.027 307.217C397.02 308.382 397.005 310.013 396.947 312.031C396.94 312.31 396.925 312.597 396.918 312.89C396.845 315.719 396.736 319.215 396.583 323.163C396.575 323.402 396.568 323.635 396.554 323.875C396.349 328.695 396.029 334.308 395.475 343.196C394.447 359.614 392.654 345.453 390.854 351.212C385.855 348.403 380.374 345.46 374.515 342.437C373.458 341.891 372.391 341.343 371.315 340.793C359.596 334.821 346.507 328.562 332.842 322.364C332.303 322.117 331.756 321.871 331.217 321.631C299.915 307.497 265.749 293.748 238.069 284.574C232.727 282.803 227.625 281.205 222.83 279.8C212.728 276.851 203.997 274.787 197.278 273.895C190.281 272.963 185.45 273.295 183.496 275.22C183.423 273.861 183.348 272.561 183.27 271.318C183.241 270.905 183.212 270.499 183.183 270.1C183.228 269.99 183.286 269.886 183.343 269.78C183.351 269.765 183.357 269.749 183.365 269.734C183.379 269.699 183.396 269.666 183.416 269.634C183.438 269.592 183.462 269.552 183.489 269.514C183.513 269.467 183.542 269.422 183.576 269.381C183.642 269.287 183.715 269.188 183.795 269.094C183.854 269.025 183.917 268.958 183.985 268.895C184.007 268.863 184.034 268.833 184.065 268.808C184.094 268.781 184.123 268.748 184.16 268.715C184.175 268.694 184.195 268.676 184.218 268.662C184.275 268.601 184.339 268.545 184.407 268.495C184.667 268.277 184.945 268.076 185.238 267.896C185.34 267.836 185.449 267.776 185.552 267.71C186.286 267.308 187.059 266.969 187.862 266.698C188.139 266.604 188.416 266.518 188.715 266.425C188.824 266.398 188.926 266.365 189.035 266.331C189.196 266.285 189.356 266.238 189.523 266.205C190.354 265.979 191.251 265.785 192.22 265.606C192.512 265.552 192.818 265.499 193.124 265.453C193.372 265.413 193.627 265.373 193.882 265.333C196.046 265.02 198.502 264.787 201.213 264.634C201.469 264.62 201.724 264.607 201.979 264.594C202.277 264.58 202.576 264.567 202.882 264.554C203.137 264.54 203.4 264.534 203.662 264.527C203.917 264.514 204.18 264.507 204.449 264.5C205.185 264.481 205.943 264.461 206.716 264.447C208.917 264.414 211.234 264.427 213.669 264.474C214.798 264.494 215.95 264.527 217.13 264.574C217.203 264.574 217.283 264.58 217.356 264.58C218.384 264.607 219.426 264.654 220.483 264.7C221.226 264.733 221.977 264.767 222.728 264.807C223.434 264.847 224.149 264.887 224.87 264.933C225.431 264.96 225.993 265 226.561 265.033C227.042 265.066 227.523 265.1 228.004 265.126C228.58 265.166 229.156 265.206 229.739 265.246C230.54 265.306 231.342 265.366 232.158 265.426C232.967 265.492 233.791 265.559 234.614 265.626C235.438 265.692 236.269 265.765 237.099 265.839C237.187 265.845 237.267 265.852 237.347 265.859C238.105 265.932 238.863 265.998 239.628 266.072C243.87 266.465 248.236 266.924 252.725 267.45C255.407 267.763 258.123 268.098 260.873 268.455C265.049 268.994 269.291 269.58 273.561 270.206C277.839 270.839 282.142 271.507 286.468 272.21C287.562 272.39 288.655 272.57 289.755 272.756C291.096 272.983 292.437 273.213 293.778 273.449C294.624 273.595 295.469 273.742 296.314 273.895C297.32 274.074 298.333 274.254 299.339 274.434C305.964 275.632 312.552 276.911 318.98 278.249C320.037 278.469 321.094 278.695 322.143 278.915C324.242 279.361 326.322 279.813 328.382 280.273C328.95 280.399 329.511 280.526 330.072 280.652C331.479 280.972 332.871 281.292 334.248 281.611V281.618C334.329 281.631 334.409 281.651 334.489 281.671C335.495 281.904 336.493 282.137 337.484 282.377C339.824 282.936 342.124 283.5 344.386 284.068C345.887 284.454 347.374 284.834 348.839 285.22C351.033 285.806 353.183 286.391 355.274 286.977C355.792 287.124 356.309 287.27 356.819 287.41C358.35 287.85 359.851 288.287 361.323 288.722C362.489 289.068 363.626 289.421 364.749 289.774C365.871 290.126 366.972 290.479 368.05 290.832C368.75 291.059 369.435 291.292 370.113 291.518C371.104 291.851 372.066 292.184 373.013 292.523C373.305 292.623 373.589 292.73 373.873 292.83C374.405 293.016 374.923 293.209 375.433 293.402C375.775 293.522 376.111 293.648 376.446 293.782C376.774 293.901 377.109 294.028 377.43 294.154C377.758 294.274 378.078 294.401 378.399 294.534C378.669 294.634 378.931 294.74 379.186 294.847C379.704 295.053 380.221 295.26 380.724 295.473C380.972 295.579 381.22 295.679 381.467 295.786L382.036 296.025C382.116 296.065 382.196 296.099 382.276 296.132C382.896 296.398 383.493 296.664 384.076 296.931C384.623 297.184 385.155 297.437 385.665 297.683C386.27 297.976 386.846 298.262 387.4 298.555C387.509 298.609 387.618 298.668 387.728 298.722C388.099 298.915 388.457 299.115 388.814 299.308C389.513 299.7 390.176 300.087 390.796 300.473C391.408 300.859 391.977 301.238 392.509 301.618C392.509 301.625 392.509 301.625 392.516 301.625C392.771 301.811 393.019 301.997 393.252 302.177C393.631 302.477 393.981 302.763 394.301 303.056C394.409 303.146 394.511 303.242 394.608 303.342C394.65 303.374 394.689 303.41 394.724 303.449C394.877 303.602 395.03 303.755 395.176 303.908C395.351 304.095 395.511 304.281 395.664 304.467C395.737 304.561 395.817 304.654 395.883 304.747C395.97 304.86 396.058 304.98 396.131 305.093C396.196 305.186 396.255 305.286 396.313 305.38C396.468 305.62 396.599 305.871 396.707 306.132C396.786 306.309 396.852 306.492 396.903 306.678C396.959 306.855 397 307.035 397.027 307.217Z" fill="black"/>
</g>
<defs>
<clipPath id="clip0_77_443">
<rect width="573.434" height="381" fill="white" transform="translate(0.565979)"/>
</clipPath>
</defs>
</svg>
