<svg width="57" height="57" viewBox="0 0 57 57" fill="none" xmlns="http://www.w3.org/2000/svg">
<path d="M19.4929 34.6142C19.059 34.6142 18.7667 34.6567 18.6158 34.6991V37.4767C18.795 37.5192 19.019 37.531 19.3278 37.531C20.4573 37.531 21.1529 36.9603 21.1529 35.9959C21.1529 35.133 20.554 34.6142 19.4929 34.6142ZM27.715 34.6425C27.2434 34.6425 26.9368 34.6849 26.7553 34.7274V40.8816C26.9368 40.924 27.2292 40.924 27.4933 40.924C29.4197 40.9381 30.6741 39.8771 30.6741 37.6323C30.6883 35.6753 29.5447 34.6425 27.715 34.6425Z" fill="white"/>
<path d="M33.0108 4.71584H14.1475C12.8968 4.71584 11.6973 5.21268 10.8129 6.09707C9.92852 6.98146 9.43167 8.18095 9.43167 9.43167V47.1583C9.43167 48.409 9.92852 49.6085 10.8129 50.4929C11.6973 51.3773 12.8968 51.8742 14.1475 51.8742H42.4425C43.6932 51.8742 44.8927 51.3773 45.7771 50.4929C46.6615 49.6085 47.1583 48.409 47.1583 47.1583V18.8633L33.0108 4.71584ZM22.3955 38.1747C21.6669 38.8585 20.5917 39.165 19.3396 39.165C19.0969 39.1676 18.8542 39.1535 18.6134 39.1226V42.4849H16.5054V33.2042C17.4567 33.0623 18.418 32.9976 19.3797 33.0108C20.6931 33.0108 21.6268 33.2608 22.2564 33.763C22.8553 34.2393 23.2609 35.0198 23.2609 35.9394C23.2585 36.8637 22.952 37.6441 22.3955 38.1747ZM31.3721 41.3696C30.3818 42.1926 28.8751 42.584 27.0335 42.584C25.93 42.584 25.1495 42.5132 24.619 42.4425V33.2065C25.5707 33.0676 26.5316 33.0022 27.4933 33.0108C29.2783 33.0108 30.4384 33.3315 31.3438 34.0153C32.3223 34.7415 32.9354 35.8993 32.9354 37.5616C32.9354 39.3607 32.2775 40.6033 31.3721 41.3696ZM40.0846 34.8264H36.4723V36.9745H39.8488V38.7052H36.4723V42.4873H34.336V33.0816H40.0846V34.8264ZM33.0108 21.2213H30.6529V9.43167L42.4425 21.2213H33.0108Z" fill="white"/>
</svg>
