<svg width="530" height="366" viewBox="0 0 530 366" fill="none" xmlns="http://www.w3.org/2000/svg">
<g clip-path="url(#clip0_163_2)">
<path d="M493.812 153.917C512.265 153.917 527.223 138.959 527.223 120.506C527.223 102.054 512.265 87.0958 493.812 87.0958C475.36 87.0958 460.402 102.054 460.402 120.506C460.402 138.959 475.36 153.917 493.812 153.917Z" fill="white"/>
<path d="M493.812 85.306C474.372 85.306 458.612 101.066 458.612 120.507C458.612 139.947 474.372 155.707 493.812 155.707C513.253 155.707 529.013 139.947 529.013 120.507C529.013 101.066 513.253 85.306 493.812 85.306ZM493.812 88.8857C511.276 88.8857 525.433 103.043 525.433 120.507C525.433 137.97 511.276 152.127 493.812 152.127C476.349 152.127 462.192 137.97 462.192 120.507C462.192 103.043 476.349 88.8857 493.812 88.8857Z" fill="#3F3D56"/>
<path d="M494.21 95.4485C508.049 95.4485 519.268 106.667 519.268 120.506C519.268 134.346 508.049 145.564 494.21 145.564C480.371 145.564 469.152 134.346 469.152 120.506C469.152 117.124 469.822 113.899 471.037 110.955C472.81 113.37 475.671 114.938 478.897 114.938C484.279 114.938 488.642 110.575 488.642 105.193C488.642 101.967 487.074 99.1068 484.658 97.3333C487.602 96.1186 490.828 95.4485 494.21 95.4485Z" fill="#3F3D56"/>
</g>
<g clip-path="url(#clip1_163_2)">
<path d="M490.17 322.57C489.762 321.33 488.694 320.467 487.312 320.26C486.66 320.162 485.914 320.204 485.031 320.386C483.492 320.705 482.35 320.826 481.517 320.85C484.662 315.521 487.22 309.444 488.692 303.724C491.073 294.474 489.801 290.26 488.314 288.354C484.379 283.31 478.639 280.599 471.713 280.516C468.019 280.471 464.775 281.203 463.083 281.729C461.508 281.45 459.814 281.295 458.037 281.266C454.706 281.213 451.762 281.941 449.247 283.439C447.855 282.967 445.62 282.301 443.039 281.875C436.969 280.876 432.077 281.655 428.499 284.191C424.165 287.262 422.157 292.599 422.528 300.051C422.646 302.417 423.965 309.617 426.042 316.444C427.236 320.369 428.509 323.628 429.826 326.132C431.693 329.682 433.691 331.773 435.934 332.524C437.191 332.944 439.475 333.238 441.878 331.23C442.182 331.6 442.589 331.968 443.128 332.31C443.813 332.743 444.65 333.097 445.486 333.307C448.5 334.063 451.323 333.874 453.731 332.814C453.746 333.244 453.758 333.655 453.767 334.009C453.783 334.584 453.799 335.148 453.82 335.676C453.963 339.242 454.205 342.015 454.921 343.955C454.96 344.062 455.013 344.224 455.069 344.397C455.426 345.495 456.024 347.333 457.545 348.773C459.119 350.264 461.024 350.721 462.768 350.721C463.643 350.721 464.477 350.606 465.209 350.449C467.819 349.887 470.783 349.033 472.927 345.969C474.954 343.074 475.939 338.712 476.117 331.84C476.14 331.646 476.162 331.46 476.182 331.283L476.225 330.92L476.702 330.962L476.825 330.97C479.483 331.092 482.733 330.526 484.729 329.596C486.306 328.862 491.36 326.184 490.17 322.57Z" fill="#0E1F26"/>
<path d="M485.625 323.273C477.723 324.909 477.179 322.224 477.179 322.224C485.523 309.8 489.011 294.03 486.002 290.17C477.789 279.642 463.574 284.621 463.337 284.75L463.26 284.764C461.699 284.439 459.952 284.245 457.988 284.213C454.412 284.154 451.699 285.154 449.641 286.72C449.641 286.72 424.282 276.237 425.461 299.904C425.712 304.939 432.653 338 440.932 328.014C443.958 324.362 446.882 321.275 446.882 321.275C448.334 322.243 450.072 322.736 451.895 322.559L452.036 322.439C451.992 322.892 452.012 323.335 452.093 323.86C449.96 326.251 450.587 326.671 446.323 327.552C442.009 328.444 444.544 330.032 446.198 330.448C448.204 330.951 452.845 331.664 455.981 327.259L455.856 327.762C456.691 328.433 457.278 332.13 457.18 335.482C457.081 338.833 457.016 341.134 457.674 342.931C458.333 344.728 458.989 348.772 464.594 347.567C469.277 346.56 471.704 343.95 472.041 339.597C472.281 336.502 472.823 336.96 472.857 334.193L473.292 332.883C473.794 328.688 473.372 327.334 476.257 327.964L476.959 328.026C479.082 328.122 481.861 327.683 483.493 326.922C487.005 325.286 489.089 322.555 485.625 323.273H485.625Z" fill="#263A41"/>
<path d="M451.125 302.155C450.413 302.056 449.768 302.148 449.442 302.396C449.258 302.535 449.202 302.697 449.186 302.808C449.145 303.103 449.351 303.429 449.477 303.597C449.835 304.072 450.358 304.399 450.875 304.471C450.95 304.482 451.024 304.487 451.098 304.487C451.961 304.487 452.745 303.813 452.814 303.315C452.9 302.693 451.999 302.277 451.125 302.156V302.155ZM474.718 302.175C474.65 301.687 473.784 301.548 472.963 301.662C472.142 301.777 471.347 302.149 471.413 302.638C471.466 303.018 472.151 303.668 472.961 303.668C473.03 303.668 473.099 303.663 473.169 303.654C473.71 303.578 474.107 303.234 474.295 303.035C474.582 302.732 474.749 302.395 474.718 302.175Z" fill="white"/>
<path d="M488.255 323.087C487.954 322.173 486.984 321.878 485.373 322.212C480.588 323.203 478.875 322.517 478.312 322.101C482.031 316.416 485.09 309.544 486.741 303.133C487.523 300.096 487.954 297.275 487.99 294.976C488.029 292.453 487.6 290.599 486.717 289.466C483.156 284.9 477.929 282.45 471.602 282.383C467.252 282.334 463.577 283.451 462.864 283.765C461.364 283.391 459.728 283.161 457.948 283.132C454.682 283.079 451.86 283.863 449.523 285.462C448.508 285.083 445.884 284.179 442.676 283.661C437.13 282.765 432.722 283.444 429.577 285.679C425.824 288.347 424.092 293.117 424.427 299.854C424.54 302.121 425.827 309.094 427.859 315.772C430.532 324.562 433.439 329.538 436.497 330.561C436.855 330.681 437.268 330.765 437.723 330.765C438.839 330.765 440.206 330.26 441.629 328.544C443.365 326.454 445.16 324.416 447.013 322.431C448.215 323.078 449.536 323.44 450.887 323.476C450.89 323.511 450.893 323.547 450.896 323.582C450.664 323.86 450.436 324.143 450.213 324.429C449.277 325.621 449.083 325.869 446.07 326.491C445.213 326.669 442.937 327.14 442.903 328.741C442.867 330.49 445.594 331.224 445.905 331.302C446.987 331.574 448.03 331.708 449.025 331.708C451.444 331.708 453.573 330.911 455.274 329.367C455.222 335.603 455.481 341.747 456.227 343.619C456.838 345.152 458.331 348.898 463.047 348.897C463.739 348.897 464.5 348.816 465.338 348.636C470.26 347.578 472.397 345.395 473.224 340.583C473.666 338.011 474.425 331.87 474.783 328.576C475.536 328.812 476.506 328.92 477.555 328.919C479.743 328.919 482.267 328.453 483.85 327.716C485.628 326.887 488.837 324.854 488.255 323.087ZM476.535 300.827C476.519 301.8 476.385 302.683 476.244 303.604C476.092 304.595 475.934 305.62 475.895 306.864C475.856 308.075 476.006 309.333 476.152 310.55C476.446 313.009 476.748 315.54 475.579 318.037C475.385 317.692 475.212 317.335 475.061 316.968C474.915 316.615 474.6 316.047 474.163 315.261C472.462 312.201 468.48 305.035 470.519 302.111C471.126 301.24 472.667 300.346 476.535 300.827ZM471.846 284.352C477.515 284.478 482 286.606 485.175 290.677C487.61 293.8 484.929 308.008 477.166 320.266C477.088 320.167 477.009 320.067 476.93 319.969L476.832 319.845C478.838 316.521 478.446 313.232 478.097 310.316C477.953 309.119 477.817 307.989 477.852 306.927C477.888 305.802 478.036 304.837 478.179 303.903C478.356 302.753 478.535 301.563 478.486 300.161C478.522 300.013 478.537 299.84 478.518 299.633C478.392 298.288 476.861 294.262 473.741 290.618C472.035 288.625 469.546 286.394 466.148 284.89C467.61 284.586 469.608 284.302 471.846 284.352ZM440.123 327.287C438.556 329.179 437.473 328.816 437.117 328.697C434.797 327.921 432.105 323.001 429.732 315.199C427.678 308.448 426.478 301.659 426.383 299.756C426.083 293.736 427.538 289.54 430.706 287.285C435.862 283.616 444.34 285.812 447.746 286.926C447.697 286.975 447.646 287.02 447.598 287.069C442.008 292.734 442.141 302.412 442.154 303.004C442.154 303.232 442.173 303.555 442.199 303.999C442.295 305.627 442.474 308.657 441.996 312.088C441.552 315.276 442.531 318.397 444.683 320.65C444.904 320.88 445.136 321.1 445.378 321.308C444.421 322.337 442.339 324.613 440.123 327.287ZM446.097 319.29C444.363 317.474 443.575 314.948 443.936 312.36C444.44 308.736 444.254 305.579 444.154 303.883C444.14 303.646 444.127 303.438 444.12 303.274C444.937 302.547 448.721 300.513 451.42 301.133C452.651 301.416 453.402 302.258 453.714 303.705C455.328 311.199 453.927 314.322 452.802 316.832C452.57 317.349 452.351 317.837 452.164 318.343L452.018 318.734C451.651 319.722 451.309 320.641 451.098 321.513C449.254 321.508 447.461 320.718 446.097 319.29V319.29ZM446.38 329.396C445.841 329.261 445.357 329.026 445.073 328.832C445.31 328.72 445.733 328.568 446.465 328.416C450.009 327.684 450.557 327.167 451.752 325.645C452.026 325.295 452.336 324.9 452.767 324.417L452.767 324.417C453.408 323.697 453.701 323.819 454.233 324.04C454.663 324.219 455.083 324.761 455.253 325.357C455.333 325.639 455.424 326.173 455.128 326.589C452.631 330.097 448.993 330.052 446.38 329.396ZM464.928 346.715C460.592 347.647 459.057 345.427 458.045 342.889C457.392 341.251 457.071 333.864 457.299 325.705C457.302 325.597 457.287 325.492 457.257 325.393C457.23 325.198 457.19 325.006 457.136 324.817C456.797 323.63 455.972 322.637 454.982 322.225C454.589 322.061 453.867 321.761 453 321.984C453.185 321.219 453.505 320.356 453.853 319.421L453.999 319.027C454.163 318.584 454.37 318.124 454.588 317.638C455.766 315.012 457.379 311.415 455.628 303.29C454.972 300.246 452.782 298.76 449.462 299.105C447.471 299.312 445.65 300.118 444.742 300.58C444.547 300.679 444.368 300.775 444.201 300.869C444.455 297.802 445.413 292.071 448.995 288.446C451.251 286.163 454.255 285.036 457.915 285.097C465.127 285.215 469.752 288.929 472.362 292.024C474.611 294.69 475.829 297.377 476.315 298.826C472.66 298.453 470.174 299.177 468.914 300.985C466.172 304.917 470.414 312.549 472.452 316.218C472.826 316.89 473.149 317.471 473.25 317.718C473.914 319.332 474.773 320.41 475.401 321.196C475.593 321.437 475.78 321.671 475.922 321.876C474.815 322.196 472.826 322.936 473.007 326.634C472.861 328.49 471.822 337.179 471.294 340.249C470.597 344.305 469.11 345.815 464.928 346.715V346.715ZM483.025 325.934C481.893 326.461 479.999 326.856 478.199 326.941C476.212 327.035 475.2 326.718 474.962 326.523C474.85 324.218 475.705 323.977 476.61 323.722C476.752 323.682 476.891 323.643 477.025 323.596C477.108 323.664 477.199 323.732 477.299 323.798C478.896 324.856 481.746 324.97 485.769 324.137L485.813 324.128C485.27 324.637 484.342 325.32 483.025 325.934Z" fill="white"/>
</g>
<g clip-path="url(#clip2_163_2)">
<path d="M290.269 356.846V366H306.807C310.196 366 316.012 363.522 316.214 356.593V353.053C316.214 347.135 311.359 343.646 306.807 343.646H298.563V339.397H314.899V330.193H299.221C295.175 330.193 289.763 333.531 289.763 339.751V342.938C289.763 349.158 295.124 352.345 299.221 352.345C310.6 352.395 296.49 352.345 307.01 352.345V356.795L290.269 356.846ZM201.661 354.62C201.661 354.62 210.512 353.862 210.512 342.432C210.512 331.002 199.79 329.94 199.79 329.94H180.47V366H190.18V357.301L198.576 366H212.939L201.661 354.62ZM197.918 347.236H190.18V338.993H197.969C197.969 338.993 200.144 339.802 200.144 343.089C200.144 346.377 197.918 347.236 197.918 347.236ZM234.484 330.193H224.622C217.592 330.193 215.215 336.565 215.215 339.6V366H225.077V359.678H234.333V366H243.891V339.6C243.891 331.912 236.912 330.193 234.484 330.193ZM234.333 349.462H225.027V340.712C225.027 340.712 225.027 338.74 228.112 338.74H231.5C234.232 338.74 234.282 340.712 234.282 340.712V349.462H234.333ZM248.393 330.193H258.659V366H248.393V330.193ZM273.073 356.745V330.193H262.857V366H286.881V356.745H273.073Z" fill="#FF6584"/>
<path d="M119.527 366H159.481C159.481 366 151.844 331.153 177.132 317.043C182.645 314.362 200.194 304.349 228.921 325.59C229.832 324.832 230.691 324.225 230.691 324.225C230.691 324.225 204.392 297.976 175.109 300.909C160.391 302.224 142.285 315.627 131.665 333.328C121.044 351.03 119.527 366 119.527 366Z" fill="#FF6584"/>
<path d="M119.527 366H159.481C159.481 366 151.844 331.153 177.132 317.043C182.645 314.362 200.194 304.349 228.921 325.59C229.832 324.832 230.691 324.225 230.691 324.225C230.691 324.225 204.392 297.976 175.109 300.909C160.391 302.224 142.285 315.627 131.665 333.328C121.044 351.03 119.527 366 119.527 366Z" fill="#FF6584"/>
<path d="M119.527 366H159.481C159.481 366 151.844 331.154 177.132 317.043C182.645 314.363 200.194 304.349 228.921 325.59C229.832 324.832 230.691 324.225 230.691 324.225C230.691 324.225 204.392 297.976 175.109 300.909C160.341 302.224 142.235 315.627 131.614 333.328C120.993 351.03 119.527 366 119.527 366ZM202.774 303.742L202.976 300.353C202.521 300.1 201.256 299.493 198.07 298.583L197.868 301.921C199.537 302.477 201.155 303.084 202.774 303.742Z" fill="#FF6584"/>
<path d="M197.969 314.464L197.767 317.65C199.436 317.7 201.105 317.903 202.774 318.257L202.976 315.121C201.256 314.767 199.587 314.565 197.969 314.464ZM179.256 298.684H179.762L178.75 295.599C177.182 295.599 175.564 295.7 173.895 295.902L174.856 298.886C176.323 298.735 177.789 298.684 179.256 298.684ZM181.684 317.296L182.847 320.786C184.313 320.077 185.78 319.471 187.247 319.015L186.134 315.677C184.415 316.183 182.948 316.74 181.684 317.296ZM158.722 303.995L156.446 300.505C155.182 301.162 153.867 301.87 152.502 302.68L154.828 306.22C156.143 305.411 157.407 304.652 158.722 303.995ZM169.09 326.753L171.518 330.395C172.378 329.13 173.389 327.967 174.502 326.804L172.226 323.365C171.063 324.427 170.001 325.59 169.09 326.753ZM161.757 343.039L165.853 346.276C166.056 344.303 166.41 342.331 166.916 340.358L163.274 337.475C162.617 339.347 162.161 341.218 161.757 343.039ZM139.605 319.015L136.014 315.88C134.699 317.144 133.435 318.409 132.271 319.673L136.166 323.011C137.228 321.645 138.391 320.28 139.605 319.015ZM124.331 341.623L118.515 339.498C117.554 341.673 116.492 344.202 115.986 345.568L121.802 347.692C122.46 345.972 123.522 343.494 124.331 341.623ZM160.998 355.885C161.099 358.565 161.352 360.74 161.605 362.257L167.674 364.432C167.219 362.46 166.764 360.234 166.46 357.857L160.998 355.885Z" fill="#FF6584"/>
</g>
<path d="M362.895 189.531C360.272 192.901 357.217 195.873 353.825 198.356C349.179 201.784 344.039 204.3 338.768 206.127C335.722 207.175 332.624 208.022 329.491 208.663C328.717 208.822 327.941 208.973 327.167 209.108C318.286 210.69 309.277 210.879 300.434 209.669C298.605 209.418 296.788 209.111 294.982 208.75C292.714 208.293 290.471 207.748 288.253 207.116C285.953 206.46 283.678 205.711 281.431 204.869C278.78 203.879 276.174 202.759 273.613 201.509C271.12 200.294 268.679 198.963 266.291 197.517C262.796 195.399 259.437 193.046 256.236 190.473L256.219 190.468C254.555 189.131 252.934 187.733 251.357 186.273C250.628 185.603 249.911 184.921 249.202 184.224L248.631 183.657C247.591 182.617 246.57 181.55 245.568 180.454C244.741 179.552 243.931 178.629 243.139 177.687C242.786 177.267 242.434 176.843 242.084 176.414C242.054 176.381 242.028 176.347 241.998 176.311C241.881 176.166 241.761 176.021 241.645 175.872L241.545 175.749C240.644 174.627 239.765 173.481 238.91 172.31L238.898 172.293C238.637 171.933 238.377 171.571 238.117 171.207C238.084 171.164 238.054 171.119 238.022 171.071C237.872 170.865 237.728 170.656 237.581 170.444L237.445 170.258C237.234 169.955 237.029 169.648 236.822 169.339C236.778 169.28 236.736 169.219 236.698 169.156C236.656 169.097 236.616 169.038 236.575 168.975C236.456 168.8 236.338 168.623 236.223 168.445L236.097 168.255L236.089 168.243L235.643 167.556C235.594 167.483 235.549 167.41 235.5 167.335L235.381 167.148C235.249 166.946 235.118 166.743 235 166.544L234.984 166.521L234.906 166.396L234.866 166.332C234.84 166.29 234.816 166.249 234.788 166.209C234.659 165.996 234.53 165.785 234.401 165.571C234.38 165.541 234.361 165.507 234.34 165.475L234.286 165.385L234.275 165.369L234.229 165.287L234.069 165.026L233.956 164.838L233.749 164.494C233.688 164.394 233.628 164.294 233.57 164.192L233.523 164.112L233.506 164.085L233.39 163.886L233.342 163.808C233.195 163.556 233.048 163.301 232.902 163.042C232.781 162.836 232.665 162.627 232.547 162.415L232.361 162.079L232.313 161.995C231.874 161.205 231.442 160.403 230.998 159.616C230.273 158.291 229.45 157.032 228.536 155.848C228.475 155.77 228.414 155.694 228.35 155.619C228.179 155.409 228.002 155.207 227.821 155.012C227.449 154.608 227.056 154.226 226.644 153.868C225.558 152.945 224.353 152.187 223.063 151.615C222.615 151.413 222.162 151.232 221.703 151.072L221.358 150.953C220.948 150.818 220.533 150.698 220.114 150.589C219.694 150.479 219.315 150.395 218.912 150.317C218.345 150.204 217.771 150.115 217.194 150.046C217.124 150.026 217.051 150.027 216.979 150.021C215.123 149.82 213.25 149.775 211.377 149.888C208.478 150.046 205.556 150.452 202.65 150.75C201.413 150.876 200.184 150.983 198.956 151.041L198.686 151.053C196.946 151.142 195.208 151.09 193.485 150.899C193.345 150.883 193.207 150.864 193.067 150.844C190.044 150.418 187.142 149.399 184.509 147.838C183.883 147.472 183.273 147.078 182.678 146.655L182.566 146.577C182.493 146.528 182.426 146.478 182.357 146.428C182.263 146.359 182.167 146.291 182.075 146.219C181.607 145.869 181.145 145.497 180.688 145.108C180.593 145.03 180.502 144.952 180.413 144.872C179.98 144.492 179.558 144.101 179.147 143.689C179.056 143.602 178.966 143.512 178.879 143.426C178.458 142.997 178.05 142.557 177.654 142.101C177.509 141.943 177.367 141.779 177.225 141.611C176.809 141.114 176.407 140.605 176.02 140.083C175.61 139.527 175.217 138.959 174.84 138.377C174.663 138.108 174.493 137.837 174.328 137.56C173.351 135.957 172.504 134.268 171.793 132.509C171.752 132.414 171.714 132.321 171.683 132.229C171.495 131.749 171.314 131.263 171.152 130.774L170.965 130.236C170.77 129.641 170.589 129.035 170.421 128.418C170.395 128.331 170.372 128.24 170.35 128.151C169.668 125.583 169.265 122.933 169.147 120.25C169.142 120.168 169.14 120.082 169.139 119.999C169.107 119.141 169.104 118.276 169.132 117.406C169.145 117.042 169.16 116.674 169.187 116.31C169.191 116.202 169.198 116.091 169.205 115.986C169.416 113.309 169.822 110.645 170.419 108.02L176.471 86.8126C177.889 82.4168 179.434 78.0715 181.215 73.8724C181.231 73.8163 181.261 73.76 181.283 73.7078C182.424 71.0378 183.654 68.4256 185.01 65.8959C186.422 63.2447 187.994 60.6884 189.716 58.2437C193.181 53.3438 197.241 49.0545 201.546 45.1781C202.501 44.3188 203.467 43.4784 204.443 42.657C209.637 38.2764 215.173 34.3551 220.923 31.1735C221.723 30.7278 222.525 30.3002 223.328 29.8905C223.672 29.7137 224.015 29.5425 224.358 29.3755C224.627 29.25 224.898 29.1071 225.17 28.9784C226.214 28.4729 227.265 27.9956 228.322 27.5465C228.484 27.4774 228.647 27.4106 228.808 27.3453C228.968 27.2799 229.148 27.2017 229.316 27.1346C229.664 26.993 230.01 26.8533 230.361 26.717L230.753 26.5658L231.496 26.2863L231.717 26.2079C231.846 26.1579 231.977 26.1104 232.111 26.0657C232.245 26.021 232.369 25.9714 232.501 25.9281C232.958 25.7654 233.415 25.6106 233.875 25.4606C235.838 24.8184 237.827 24.2811 239.835 23.8507C240.423 23.7211 241.014 23.6048 241.605 23.4983C244.269 23.0116 246.958 22.7412 249.647 22.6896C250.636 22.6712 251.622 22.6894 252.604 22.7441C253.76 22.7988 254.915 22.8995 256.058 23.0455C257.878 23.2787 259.68 23.6214 261.455 24.072C273.934 27.2338 285.034 35.6653 292.075 47.7684C292.465 48.4393 292.842 49.1207 293.213 49.8063C294.184 51.5987 295.111 53.4312 296.087 55.2209C297.275 57.3944 298.533 59.4992 300.03 61.3685C300.221 61.6062 300.416 61.8425 300.617 62.0775C303.687 65.6381 307.845 67.9344 312.455 67.1341L313.23 67.0035C315.397 66.6507 317.128 66.4973 318.999 66.7537C320.152 66.9216 321.283 67.2094 322.376 67.6129C325.792 68.8335 329.103 70.3372 332.279 72.1102C333.932 73.0284 335.549 74.0167 337.13 75.0749C339.342 76.5558 341.475 78.1594 343.522 79.8793C343.781 80.0944 344.038 80.3152 344.294 80.5336C345.945 81.9579 347.544 83.459 349.09 85.0369C350.588 86.5657 352.031 88.1626 353.42 89.8276C356.083 93.0125 358.52 96.4029 360.712 99.9729C360.754 100.038 360.793 100.105 360.843 100.178C360.91 100.282 360.972 100.389 361.04 100.501C361.168 100.715 361.308 100.941 361.438 101.162L361.639 101.5C361.861 101.876 362.08 102.257 362.296 102.641C362.348 102.725 362.397 102.814 362.445 102.902C362.494 102.991 362.566 103.11 362.622 103.217C363.026 103.935 363.418 104.659 363.799 105.39C365.082 107.835 366.261 110.357 367.336 112.953C370.156 119.762 372.189 126.929 373.393 134.303C373.808 136.83 374.124 139.392 374.342 141.99C374.399 142.649 374.446 143.313 374.485 143.977C375.465 159.779 372.495 177.131 362.895 189.531Z" fill="#3F3D56"/>
<path d="M277.748 197.647C258.141 197.647 239.141 190.858 223.985 178.436C208.829 166.014 198.454 148.729 194.629 129.525C190.804 110.321 193.765 90.387 203.008 73.1189C212.25 55.8508 227.203 42.3173 245.317 34.8243C263.431 27.3313 283.587 26.3425 302.349 32.0264C321.111 37.7102 337.32 49.715 348.213 65.9953C359.106 82.2756 364.009 101.824 362.087 121.31C360.165 140.796 351.537 159.013 337.673 172.859C329.822 180.742 320.483 186.992 310.197 191.247C299.911 195.502 288.881 197.677 277.748 197.647ZM277.748 29.0325C231.377 29.0325 193.652 66.7066 193.652 113.014C193.652 159.322 231.377 196.996 277.748 196.996C324.118 196.996 361.844 159.322 361.844 113.014C361.844 66.7066 324.118 29.0325 277.748 29.0325Z" fill="#CCCCCC"/>
<path d="M309.215 210.339V125.076H245.67V210.339H309.215Z" fill="#2F2E41"/>
<path d="M320.132 122.473H234.754V156.317H320.132V122.473Z" fill="#263A41"/>
<path d="M320.132 160.223H234.754V194.067H320.132V160.223Z" fill="#263A41"/>
<path d="M320.132 197.972H234.754V231.817H320.132V197.972Z" fill="#263A41"/>
<path d="M320.132 136.823H234.754V142.03H320.132V136.823Z" fill="#0E1F26"/>
<path d="M320.132 174.573H234.754V179.78H320.132V174.573Z" fill="#0E1F26"/>
<path d="M320.132 212.323H234.754V217.529H320.132V212.323Z" fill="#0E1F26"/>
<path d="M303.513 129.307C304.592 129.307 305.468 128.433 305.468 127.354C305.468 126.276 304.592 125.402 303.513 125.402C302.433 125.402 301.557 126.276 301.557 127.354C301.557 128.433 302.433 129.307 303.513 129.307Z" fill="white"/>
<path d="M310.356 129.307C311.436 129.307 312.311 128.433 312.311 127.354C312.311 126.276 311.436 125.402 310.356 125.402C309.276 125.402 308.401 126.276 308.401 127.354C308.401 128.433 309.276 129.307 310.356 129.307Z" fill="#0E1F26"/>
<path d="M317.199 129.307C318.279 129.307 319.154 128.433 319.154 127.354C319.154 126.276 318.279 125.402 317.199 125.402C316.119 125.402 315.244 126.276 315.244 127.354C315.244 128.433 316.119 129.307 317.199 129.307Z" fill="#0E1F26"/>
<path d="M303.513 166.406C304.592 166.406 305.468 165.531 305.468 164.453C305.468 163.375 304.592 162.5 303.513 162.5C302.433 162.5 301.557 163.375 301.557 164.453C301.557 165.531 302.433 166.406 303.513 166.406Z" fill="#0E1F26"/>
<path d="M310.356 166.406C311.436 166.406 312.311 165.531 312.311 164.453C312.311 163.375 311.436 162.5 310.356 162.5C309.276 162.5 308.401 163.375 308.401 164.453C308.401 165.531 309.276 166.406 310.356 166.406Z" fill="white"/>
<path d="M317.199 166.406C318.279 166.406 319.154 165.531 319.154 164.453C319.154 163.375 318.279 162.5 317.199 162.5C316.119 162.5 315.244 163.375 315.244 164.453C315.244 165.531 316.119 166.406 317.199 166.406Z" fill="#0E1F26"/>
<path d="M303.513 203.505C304.592 203.505 305.468 202.63 305.468 201.552C305.468 200.474 304.592 199.599 303.513 199.599C302.433 199.599 301.557 200.474 301.557 201.552C301.557 202.63 302.433 203.505 303.513 203.505Z" fill="#0E1F26"/>
<path d="M310.356 203.505C311.436 203.505 312.311 202.63 312.311 201.552C312.311 200.474 311.436 199.599 310.356 199.599C309.276 199.599 308.401 200.474 308.401 201.552C308.401 202.63 309.276 203.505 310.356 203.505Z" fill="#0E1F26"/>
<path d="M317.199 203.505C318.279 203.505 319.154 202.63 319.154 201.552C319.154 200.474 318.279 199.599 317.199 199.599C316.119 199.599 315.244 200.474 315.244 201.552C315.244 202.63 316.119 203.505 317.199 203.505Z" fill="#0E1F26"/>
<path d="M422.13 231.491H132.756V232.142H422.13V231.491Z" fill="#3F3D56"/>
<path d="M211.577 89.0372V149.564C211.577 150.831 211.073 152.045 210.177 152.94C209.28 153.836 208.064 154.339 206.796 154.339H183.243C181.974 154.339 180.758 153.836 179.861 152.941C178.964 152.046 178.46 150.831 178.459 149.564V89.0372C178.46 87.7707 178.964 86.5561 179.861 85.6607C180.758 84.7652 181.974 84.2623 183.243 84.2625H186.1C185.96 84.607 185.906 84.9807 185.944 85.3507C185.983 85.7206 186.111 86.0756 186.319 86.3843C186.527 86.693 186.807 86.9461 187.136 87.1212C187.464 87.2963 187.831 87.3881 188.203 87.3886H201.632C202.004 87.3881 202.371 87.2963 202.7 87.1212C203.028 86.9461 203.309 86.693 203.517 86.3843C203.724 86.0756 203.853 85.7206 203.891 85.3507C203.929 84.9807 203.876 84.607 203.736 84.2625H206.796C208.064 84.2627 209.28 84.7658 210.177 85.6612C211.073 86.5566 211.577 87.771 211.577 89.0372Z" fill="#263A41"/>
<path d="M210.008 95.8209H180.028V137.476H210.008V95.8209Z" fill="white"/>
<path d="M200.506 124.464H188.541V125.147H200.506V124.464Z" fill="#A7A7A7"/>
<path d="M207.044 126.971H188.529V127.654H207.044V126.971Z" fill="#0E1F26"/>
<path d="M203.059 129.334H188.529V130.016H203.059V129.334Z" fill="#A7A7A7"/>
<path d="M197.076 131.696H188.529V132.379H197.076V131.696Z" fill="#A7A7A7"/>
<path d="M201.349 134.058H188.529V134.741H201.349V134.058Z" fill="#A7A7A7"/>
<path d="M184.482 124.268H183.114V125.634H184.482V124.268Z" fill="#A7A7A7"/>
<path d="M184.482 126.63H183.114V127.996H184.482V126.63Z" fill="#0E1F26"/>
<path d="M184.482 128.992H183.114V130.358H184.482V128.992Z" fill="#A7A7A7"/>
<path d="M184.482 131.354H183.114V132.72H184.482V131.354Z" fill="#A7A7A7"/>
<path d="M184.482 133.717H183.114V135.082H184.482V133.717Z" fill="#A7A7A7"/>
<path d="M201.107 101.028H189.051V113.068H201.107V101.028Z" fill="#0E1F26"/>
<path d="M317.523 0.870239H237.397V52.1172H317.523V0.870239Z" fill="#263A41"/>
<path d="M309.87 15.2073H243.437V40.2768H309.87V15.2073Z" fill="white"/>
<path d="M271.485 19.5507H255.541V20.4605H271.485V19.5507Z" fill="#A7A7A7"/>
<path d="M280.195 22.8914H255.525V23.8012H280.195V22.8914Z" fill="#0E1F26"/>
<path d="M274.885 26.0387H255.525V26.9485H274.885V26.0387Z" fill="#A7A7A7"/>
<path d="M266.913 29.1862H255.525V30.096H266.913V29.1862Z" fill="#A7A7A7"/>
<path d="M272.608 32.3336H255.525V33.2435H272.608V32.3336Z" fill="#A7A7A7"/>
<path d="M250.133 19.2889H248.31V21.1086H250.133V19.2889Z" fill="#A7A7A7"/>
<path d="M250.133 22.4364H248.31V24.2561H250.133V22.4364Z" fill="#0E1F26"/>
<path d="M250.133 25.5839H248.31V27.4035H250.133V25.5839Z" fill="#A7A7A7"/>
<path d="M250.133 28.7312H248.31V30.5509H250.133V28.7312Z" fill="#A7A7A7"/>
<path d="M250.133 31.8787H248.31V33.6983H250.133V31.8787Z" fill="#A7A7A7"/>
<path d="M306.61 18.3484H290.297V34.639H306.61V18.3484Z" fill="#0E1F26"/>
<path d="M317.489 0.824829H237.363V4.22428H317.489V0.824829Z" fill="#0E1F26"/>
<path d="M239.892 3.24513C240.27 3.24513 240.576 2.93962 240.576 2.56275C240.576 2.18588 240.27 1.88037 239.892 1.88037C239.515 1.88037 239.209 2.18588 239.209 2.56275C239.209 2.93962 239.515 3.24513 239.892 3.24513Z" fill="#FF6584"/>
<path d="M242.287 3.24513C242.664 3.24513 242.97 2.93962 242.97 2.56275C242.97 2.18588 242.664 1.88037 242.287 1.88037C241.91 1.88037 241.604 2.18588 241.604 2.56275C241.604 2.93962 241.91 3.24513 242.287 3.24513Z" fill="#FF6584"/>
<path d="M244.682 3.24513C245.059 3.24513 245.365 2.93962 245.365 2.56275C245.365 2.18588 245.059 1.88037 244.682 1.88037C244.304 1.88037 243.998 2.18588 243.998 2.56275C243.998 2.93962 244.304 3.24513 244.682 3.24513Z" fill="#FF6584"/>
<path d="M371.179 96.7638H351.627V106.852H371.179V96.7638Z" fill="#263A41"/>
<path d="M371.179 132.886H351.627V142.975H371.179V132.886Z" fill="#263A41"/>
<path d="M361.403 136.141C370.402 136.141 377.696 128.856 377.696 119.869C377.696 110.883 370.402 103.598 361.403 103.598C352.404 103.598 345.109 110.883 345.109 119.869C345.109 128.856 352.404 136.141 361.403 136.141Z" fill="#263A41"/>
<path d="M361.403 132.561C368.422 132.561 374.112 126.879 374.112 119.869C374.112 112.86 368.422 107.177 361.403 107.177C354.384 107.177 348.694 112.86 348.694 119.869C348.694 126.879 354.384 132.561 361.403 132.561Z" fill="white"/>
<path d="M367.098 116.392H357.241V116.954H367.098V116.392Z" fill="#E2E2E2"/>
<path d="M372.483 118.457H357.231V119.02H372.483V118.457Z" fill="#0E1F26"/>
<path d="M369.2 120.403H357.231V120.965H369.2V120.403Z" fill="#E2E2E2"/>
<path d="M364.272 122.349H357.231V122.911H364.272V122.349Z" fill="#E2E2E2"/>
<path d="M367.792 124.294H357.231V124.857H367.792V124.294Z" fill="#E2E2E2"/>
<path d="M353.898 116.23H352.771V117.355H353.898V116.23Z" fill="#E2E2E2"/>
<path d="M353.898 118.176H352.771V119.301H353.898V118.176Z" fill="#0E1F26"/>
<path d="M353.898 120.122H352.771V121.247H353.898V120.122Z" fill="#E2E2E2"/>
<path d="M353.898 122.067H352.771V123.192H353.898V122.067Z" fill="#E2E2E2"/>
<path d="M353.898 124.013H352.771V125.138H353.898V124.013Z" fill="#E2E2E2"/>
<g clip-path="url(#clip3_163_2)">
<path d="M97.5897 224.518C97.3155 224.274 94.8473 222.279 89.5453 222.279C88.1741 222.279 86.7572 222.425 85.386 222.669C84.3805 215.224 78.5757 211.624 78.3472 211.429L76.9303 210.553L76.0162 211.964C74.8735 213.862 74.0051 216.003 73.5023 218.192C72.5425 222.425 73.1366 226.415 75.1477 229.821C72.7253 231.281 68.7945 231.622 67.9718 231.67H3.06829C1.37714 231.67 0.00594261 233.13 0.00594261 234.93C-0.0854708 240.964 0.87437 246.997 2.83976 252.69C5.07938 258.918 8.41597 263.54 12.7124 266.363C17.5573 269.525 25.4646 271.326 34.3774 271.326C38.3996 271.326 42.4217 270.936 46.3982 270.158C51.9287 269.087 57.2307 267.044 62.1213 264.076C66.1435 261.594 69.7543 258.431 72.8167 254.734C77.9815 248.554 81.0439 241.645 83.2835 235.514H84.1977C89.8196 235.514 93.2933 233.13 95.213 231.086C96.4928 229.821 97.4526 228.264 98.1382 226.513L98.5496 225.248L97.5897 224.518Z" fill="#517D8C"/>
<path d="M9.10163 229.675H17.7859C18.1973 229.675 18.5629 229.335 18.5629 228.848V220.576C18.5629 220.139 18.243 219.749 17.7859 219.749H9.10163C8.69027 219.749 8.32462 220.09 8.32462 220.576V228.848C8.37032 229.335 8.69027 229.675 9.10163 229.675ZM21.0768 229.675H29.761C30.1724 229.675 30.5381 229.335 30.5381 228.848V220.576C30.5381 220.139 30.2181 219.749 29.761 219.749H21.0768C20.6654 219.749 20.2998 220.09 20.2998 220.576V228.848C20.3455 229.335 20.6654 229.675 21.0768 229.675ZM33.2805 229.675H41.9647C42.3761 229.675 42.7417 229.335 42.7417 228.848L42.7417 220.576C42.7417 220.139 42.4218 219.749 41.9647 219.749H33.2805C32.8691 219.749 32.5034 220.09 32.5034 220.576V228.848C32.5034 229.335 32.8234 229.675 33.2805 229.675ZM45.3013 229.675H53.9856C54.3969 229.675 54.7626 229.335 54.7626 228.848L54.7626 220.576C54.7626 220.139 54.4426 219.749 53.9856 219.749H45.3013C44.8899 219.749 44.5243 220.09 44.5243 220.576L44.5243 228.848C44.5243 229.335 44.8899 229.675 45.3013 229.675ZM21.0768 217.852H29.761C30.1724 217.852 30.5381 217.462 30.5381 217.025L30.5381 208.753C30.5381 208.315 30.2181 207.926 29.761 207.926H21.0768C20.6654 207.926 20.2998 208.266 20.2998 208.753V217.025C20.3455 217.462 20.6654 217.852 21.0768 217.852ZM33.2805 217.852H41.9647C42.3761 217.852 42.7417 217.462 42.7417 217.025V208.753C42.7417 208.315 42.4218 207.926 41.9647 207.926H33.2805C32.8691 207.926 32.5034 208.266 32.5034 208.753V217.025C32.5034 217.462 32.8234 217.852 33.2805 217.852ZM45.3013 217.852H53.9856C54.3969 217.852 54.7626 217.462 54.7626 217.025V208.753C54.7626 208.315 54.3969 207.926 53.9856 207.926H45.3013C44.8899 207.926 44.5243 208.266 44.5243 208.753V217.025C44.5243 217.462 44.8899 217.852 45.3013 217.852ZM45.3013 205.979H53.9856C54.3969 205.979 54.7626 205.639 54.7626 205.152V196.881C54.7626 196.443 54.3969 196.053 53.9856 196.053H45.3013C44.8899 196.053 44.5243 196.394 44.5243 196.881V205.152C44.5243 205.59 44.8899 205.979 45.3013 205.979ZM57.4136 229.675H66.0978C66.5092 229.675 66.8749 229.335 66.8749 228.848V220.576C66.8749 220.139 66.5549 219.749 66.0978 219.749H57.4136C57.0022 219.749 56.6366 220.09 56.6366 220.576L56.6366 228.848C56.6823 229.335 57.0022 229.675 57.4136 229.675Z" fill="#517D8C"/>
</g>
<g clip-path="url(#clip4_163_2)">
<path d="M82.8263 71.3417L51.9677 38.4784C51.5451 38.0281 51.0433 37.671 50.4911 37.4273C49.9389 37.1836 49.347 37.0582 48.7492 37.0582C48.1515 37.0582 47.5596 37.1836 47.0073 37.4273C46.4551 37.671 45.9534 38.0281 45.5307 38.4784L39.123 45.3035L47.2516 53.9601C48.2071 53.614 49.2345 53.5598 50.2174 53.8037C51.2003 54.0476 52.0994 54.5798 52.8129 55.3399C53.5302 56.1049 54.031 57.0694 54.2581 58.1231C54.4852 59.1768 54.4295 60.2773 54.0972 61.2989L61.93 69.6424C63.8253 68.9472 66.0125 69.3973 67.5257 71.0117C68.0288 71.5472 68.4279 72.183 68.7002 72.8828C68.9725 73.5826 69.1126 74.3327 69.1126 75.0902C69.1126 75.8477 68.9725 76.5978 68.7002 77.2976C68.4279 77.9974 68.0288 78.6332 67.5257 79.1687C66.6406 80.1123 65.4758 80.7 64.2296 80.8318C62.9833 80.9637 61.7327 80.6315 60.6906 79.8918C59.6485 79.1521 58.8793 78.0506 58.5139 76.7748C58.1485 75.4991 58.2095 74.1279 58.6866 72.8946L51.3813 65.1142L51.3806 85.5898C51.9102 85.8686 52.3939 86.237 52.8129 86.6806C53.3159 87.2163 53.715 87.8522 53.9872 88.5522C54.2595 89.2521 54.3996 90.0023 54.3996 90.7599C54.3996 91.5175 54.2595 92.2676 53.9872 92.9676C53.715 93.6675 53.3159 94.3034 52.8129 94.8391C50.6966 97.0929 47.2669 97.0929 45.1539 94.8391C44.5227 94.1673 44.0571 93.3398 43.7985 92.4301C43.54 91.5205 43.4965 90.5569 43.6719 89.625C43.8473 88.6931 44.2362 87.8219 44.804 87.0887C45.3718 86.3555 46.1009 85.783 46.9265 85.4223V64.756C46.2624 64.4672 45.6596 64.039 45.1539 63.497C43.5512 61.7921 43.1657 59.2874 43.987 57.1911L35.9745 48.6561L14.8161 71.1891C14.3932 71.6393 14.0579 72.1739 13.829 72.7622C13.6002 73.3505 13.4825 73.9811 13.4825 74.6179C13.4825 75.2547 13.6002 75.8853 13.829 76.4736C14.0579 77.0619 14.3932 77.5965 14.8161 78.0467L45.6747 110.911C46.5284 111.82 47.6861 112.33 48.8932 112.33C50.1003 112.33 51.258 111.82 52.1117 110.911L82.8263 78.2001C83.6799 77.2904 84.1595 76.0569 84.1595 74.7709C84.1595 73.4848 83.6799 72.2513 82.8263 71.3417Z" fill="#8C6235"/>
</g>
<defs>
<clipPath id="clip0_163_2">
<rect width="70.401" height="70.401" fill="white" transform="translate(458.612 85.306)"/>
</clipPath>
<clipPath id="clip1_163_2">
<rect width="68.0279" height="70.401" fill="white" transform="translate(422.406 280.417)"/>
</clipPath>
<clipPath id="clip2_163_2">
<rect width="200.23" height="70.401" fill="white" transform="translate(115.985 295.599)"/>
</clipPath>
<clipPath id="clip3_163_2">
<rect width="98.5482" height="75.2721" fill="white" transform="translate(0 196.053)"/>
</clipPath>
<clipPath id="clip4_163_2">
<rect width="70.676" height="75.2721" fill="white" transform="translate(13.4825 37.0582)"/>
</clipPath>
</defs>
</svg>
