<svg width="496" height="364" viewBox="0 0 496 364" fill="none" xmlns="http://www.w3.org/2000/svg">
<path d="M413.089 197.916C427.027 181.789 431.568 159.571 425.076 139.267C421.569 128.299 414.833 118.74 404.415 113.835C382.321 103.431 346.229 90.1565 337.696 81.3303C317.997 61.0971 326.02 28.8886 294.067 19.4172C216.437 -3.59426 153.058 29.8824 122.915 81.3303C76.8525 159.948 39.0554 288.87 232.887 226.575C265.982 215.939 285.814 228.548 310.576 241.087C324.943 248.363 341.364 249.651 357.225 246.863C367.566 245.045 376.962 239.715 383.827 231.772L413.089 197.916Z" fill="#3F3D56"/>
<path opacity="0.4" d="M308.918 146.634C323.192 146.634 334.763 135.053 334.763 120.766C334.763 106.479 323.192 94.8973 308.918 94.8973C294.645 94.8973 283.074 106.479 283.074 120.766C283.074 135.053 294.645 146.634 308.918 146.634Z" fill="#263A41"/>
<path d="M309.508 156.56H165.389V195.656H309.508V156.56Z" fill="#0E1F26"/>
<path d="M300.278 59.6956L294.523 62.4217L299.616 58.6098C298.788 57.3165 297.858 56.0917 296.835 54.9471L271.878 61.1561L294.422 52.5485C293.391 51.6388 292.297 50.8041 291.148 50.051L253.119 56.1822C249.081 61.236 246.88 67.5137 246.877 73.9847H304.121C304.119 68.9661 302.793 64.0371 300.278 59.6956Z" fill="#F2F2F2"/>
<path d="M302.565 27.4948C279.691 16.3275 254.568 8.66409 229.117 8.70016C129.148 4.79001 152.732 41.7012 121.728 83.381C174.401 71.8291 244.629 39.4759 302.565 27.4948Z" fill="#F2F2F2"/>
<path d="M417.935 234.753H74.473V235.427H417.935V234.753Z" fill="#263A41"/>
<path d="M275.117 73.9847L255.632 45.0159C255.632 45.0159 285.14 55.3268 281.791 73.9847H275.117Z" fill="#0E1F26"/>
<path d="M275.881 73.9847L295.366 45.0159C295.366 45.0159 265.858 55.3268 269.207 73.9847H275.881Z" fill="#263A41"/>
<path d="M309.677 235.427H165.221V19.7212H309.677V235.427ZM165.894 234.753H309.003V20.3953H165.894V234.753Z" fill="#0E1F26"/>
<path d="M309.508 24.8379H165.726V25.512H309.508V24.8379Z" fill="#263A41"/>
<path d="M169.43 23.7657C170.174 23.7657 170.777 23.1621 170.777 22.4175C170.777 21.6729 170.174 21.0693 169.43 21.0693C168.686 21.0693 168.083 21.6729 168.083 22.4175C168.083 23.1621 168.686 23.7657 169.43 23.7657Z" fill="#FF6584"/>
<path d="M173.134 23.7657C173.878 23.7657 174.481 23.1621 174.481 22.4175C174.481 21.6729 173.878 21.0693 173.134 21.0693C172.39 21.0693 171.787 21.6729 171.787 22.4175C171.787 23.1621 172.39 23.7657 173.134 23.7657Z" fill="#FF6584"/>
<path d="M176.838 23.7657C177.582 23.7657 178.185 23.1621 178.185 22.4175C178.185 21.6729 177.582 21.0693 176.838 21.0693C176.094 21.0693 175.491 21.6729 175.491 22.4175C175.491 23.1621 176.094 23.7657 176.838 23.7657Z" fill="#FF6584"/>
<path d="M176.838 29.4954H170.777V32.8658H176.838V29.4954Z" fill="#263A41"/>
<path d="M200.409 56.1216H170.777V59.492H200.409V56.1216Z" fill="#263A41"/>
<path d="M276.172 32.8658L305.804 32.8658V29.4954L276.172 29.4954V32.8658Z" fill="#0E1F26"/>
<path d="M220.613 61.8513H170.777V63.8735H220.613V61.8513Z" fill="#0E1F26"/>
<path d="M217.919 66.2328H170.777V68.2551H217.919V66.2328Z" fill="#0E1F26"/>
<path d="M205.123 70.6144H170.777V72.6366H205.123V70.6144Z" fill="#F2F2F2"/>
<path d="M201.756 130.608H182.226V132.63H201.756V130.608Z" fill="#F2F2F2"/>
<path d="M200.7 134.989H182.226V137.011H200.7V134.989Z" fill="#F2F2F2"/>
<path d="M195.686 139.371H182.226V141.393H195.686V139.371Z" fill="#F2F2F2"/>
<path d="M247.214 130.608H227.684V132.63H247.214V130.608Z" fill="#F2F2F2"/>
<path d="M246.158 134.989H227.684V137.011H246.158V134.989Z" fill="#F2F2F2"/>
<path d="M241.144 139.371H227.684V141.393H241.144V139.371Z" fill="#F2F2F2"/>
<path d="M294.356 130.608H274.826V132.63H294.356V130.608Z" fill="#F2F2F2"/>
<path d="M293.3 134.989H274.826V137.011H293.3V134.989Z" fill="#F2F2F2"/>
<path d="M288.286 139.371H274.826V141.393H288.286V139.371Z" fill="#F2F2F2"/>
<path d="M242.163 207.116H212.531V210.486H242.163V207.116Z" fill="#263A41"/>
<path d="M262.367 212.845H212.531V214.868H262.367V212.845Z" fill="#F2F2F2"/>
<path d="M259.673 217.227H212.531V219.249H259.673V217.227Z" fill="#F2F2F2"/>
<path d="M246.877 221.609H212.531V223.631H246.877V221.609Z" fill="#F2F2F2"/>
<path opacity="0.3" d="M296.881 92.522H179.7V93.1961H296.881V92.522Z" fill="#263A41"/>
<path opacity="0.3" d="M204.45 104.318H179.532V126.563H204.45V104.318Z" fill="#263A41"/>
<path d="M249.908 104.318H224.99V126.563H249.908V104.318Z" fill="#0E1F26"/>
<path d="M297.05 104.318H272.132V126.563H297.05V104.318Z" fill="#0E1F26"/>
<path d="M234.202 126.47L233.874 126.463C233.881 126.099 234.086 117.511 237.464 115.137L237.653 115.406C234.411 117.684 234.204 126.382 234.202 126.47Z" fill="#263A41"/>
<path d="M239.202 115.029C240.11 115.029 240.846 114.292 240.846 113.383C240.846 112.475 240.11 111.738 239.202 111.738C238.294 111.738 237.558 112.475 237.558 113.383C237.558 114.292 238.294 115.029 239.202 115.029Z" fill="#263A41"/>
<path d="M238.87 119.193C238.015 119.461 237.104 119.501 236.229 119.307C236.785 118.599 237.533 118.067 238.384 117.775C239.234 117.482 240.151 117.443 241.024 117.66C240.452 118.351 239.709 118.879 238.87 119.193Z" fill="#263A41"/>
<path d="M281.344 126.47L281.015 126.463C281.023 126.099 281.228 117.511 284.606 115.137L284.794 115.406C281.553 117.684 281.346 126.382 281.344 126.47Z" fill="#263A41"/>
<path d="M286.344 115.029C287.252 115.029 287.987 114.292 287.987 113.383C287.987 112.475 287.252 111.738 286.344 111.738C285.436 111.738 284.7 112.475 284.7 113.383C284.7 114.292 285.436 115.029 286.344 115.029Z" fill="#263A41"/>
<path d="M286.011 119.193C285.156 119.461 284.246 119.501 283.371 119.307C283.927 118.599 284.675 118.067 285.525 117.775C286.376 117.482 287.293 117.443 288.166 117.66C287.594 118.351 286.851 118.879 286.011 119.193Z" fill="#263A41"/>
<path d="M200.409 169.03H170.777V172.401H200.409V169.03Z" fill="#263A41"/>
<path d="M220.613 174.76H170.777V176.782H220.613V174.76Z" fill="#F2F2F2"/>
<path d="M217.919 179.141H170.777V181.164H217.919V179.141Z" fill="#F2F2F2"/>
<path d="M205.123 183.523H170.777V185.545H205.123V183.523Z" fill="#F2F2F2"/>
<path opacity="0.4" d="M280.466 184.213C286.278 184.213 290.988 179.498 290.988 173.681C290.988 167.865 286.278 163.149 280.466 163.149C274.655 163.149 269.944 167.865 269.944 173.681C269.944 179.498 274.655 184.213 280.466 184.213Z" fill="#263A41"/>
<path opacity="0.4" d="M260.993 186.099C265.069 186.099 268.374 182.792 268.374 178.711C268.374 174.631 265.069 171.323 260.993 171.323C256.916 171.323 253.612 174.631 253.612 178.711C253.612 182.792 256.916 186.099 260.993 186.099Z" fill="#263A41"/>
<path d="M130.875 223.799C145.566 223.799 157.476 211.878 157.476 197.173C157.476 182.468 145.566 170.547 130.875 170.547C116.183 170.547 104.273 182.468 104.273 197.173C104.273 211.878 116.183 223.799 130.875 223.799Z" fill="#263A41"/>
<path d="M126.834 218.07H118.753V232.562H126.834V218.07Z" fill="#263A41"/>
<path d="M142.997 218.07H134.915V232.562H142.997V218.07Z" fill="#263A41"/>
<path d="M125.487 235.259C129.206 235.259 132.222 234.127 132.222 232.731C132.222 231.335 129.206 230.203 125.487 230.203C121.768 230.203 118.753 231.335 118.753 232.731C118.753 234.127 121.768 235.259 125.487 235.259Z" fill="#263A41"/>
<path d="M141.65 234.922C145.369 234.922 148.385 233.79 148.385 232.394C148.385 230.998 145.369 229.866 141.65 229.866C137.931 229.866 134.915 230.998 134.915 232.394C134.915 233.79 137.931 234.922 141.65 234.922Z" fill="#263A41"/>
<path d="M131.548 199.532C136.569 199.532 140.64 195.458 140.64 190.432C140.64 185.406 136.569 181.332 131.548 181.332C126.527 181.332 122.457 185.406 122.457 190.432C122.457 195.458 126.527 199.532 131.548 199.532Z" fill="white"/>
<path d="M131.548 189.421C133.222 189.421 134.579 188.063 134.579 186.388C134.579 184.712 133.222 183.354 131.548 183.354C129.874 183.354 128.518 184.712 128.518 186.388C128.518 188.063 129.874 189.421 131.548 189.421Z" fill="#0E1F26"/>
<path d="M105.07 172.411C102.923 162.783 109.789 153.054 120.406 150.681C131.024 148.308 141.373 154.189 143.521 163.818C145.669 173.446 138.632 176.997 128.014 179.37C117.396 181.743 107.218 182.04 105.07 172.411Z" fill="#263A41"/>
<path d="M154.79 169.472C157.885 162.804 158.699 156.61 156.608 155.637C154.517 154.664 150.312 159.281 147.216 165.949C144.121 172.617 143.307 178.811 145.398 179.784C147.489 180.756 151.694 176.14 154.79 169.472Z" fill="#263A41"/>
<path d="M108.4 187.566C110.438 186.486 109.305 180.343 105.868 173.844C102.432 167.346 97.9934 162.953 95.9552 164.033C93.9171 165.113 95.0507 171.256 98.4873 177.755C101.924 184.253 106.362 188.646 108.4 187.566Z" fill="#263A41"/>
<path d="M355.374 189.794C357.526 188.964 357.128 182.73 354.486 175.869C351.845 169.008 347.959 164.12 345.807 164.95C343.655 165.78 344.052 172.014 346.694 178.875C349.336 185.736 353.222 190.624 355.374 189.794Z" fill="#263A41"/>
<path d="M375.234 224.036C389.926 224.036 401.836 212.115 401.836 197.41C401.836 182.704 389.926 170.783 375.234 170.783C360.543 170.783 348.633 182.704 348.633 197.41C348.633 212.115 360.543 224.036 375.234 224.036Z" fill="#263A41"/>
<path d="M379.373 232.786L387.454 232.763L387.414 218.271L379.332 218.293L379.373 232.786Z" fill="#263A41"/>
<path d="M363.211 232.833L371.292 232.81L371.252 218.317L363.17 218.34L363.211 232.833Z" fill="#263A41"/>
<path d="M380.728 235.48C384.448 235.469 387.46 234.329 387.456 232.933C387.452 231.537 384.433 230.414 380.714 230.424C376.995 230.435 373.983 231.575 373.987 232.971C373.991 234.367 377.009 235.49 380.728 235.48Z" fill="#263A41"/>
<path d="M364.565 235.188C368.284 235.178 371.296 234.038 371.292 232.642C371.288 231.245 368.27 230.122 364.55 230.133C360.831 230.143 357.819 231.283 357.823 232.679C357.827 234.075 360.845 235.199 364.565 235.188Z" fill="#263A41"/>
<path d="M374.542 199.771C379.563 199.771 383.633 195.696 383.633 190.671C383.633 185.645 379.563 181.571 374.542 181.571C369.521 181.571 365.45 185.645 365.45 190.671C365.45 195.696 369.521 199.771 374.542 199.771Z" fill="white"/>
<path d="M374.542 193.704C376.215 193.704 377.572 192.346 377.572 190.671C377.572 188.995 376.215 187.637 374.542 187.637C372.868 187.637 371.511 188.995 371.511 190.671C371.511 192.346 372.868 193.704 374.542 193.704Z" fill="#0E1F26"/>
<path d="M400.969 172.576C403.09 162.941 396.197 153.231 385.572 150.888C374.948 148.545 364.616 154.456 362.495 164.09C360.374 173.724 367.421 177.256 378.045 179.599C388.669 181.942 398.848 182.21 400.969 172.576Z" fill="#263A41"/>
<path d="M406.961 188.742C413.59 185.573 418.157 181.315 417.163 179.232C416.169 177.149 409.99 178.03 403.362 181.2C396.733 184.369 392.166 188.627 393.16 190.71C394.154 192.792 400.333 191.911 406.961 188.742Z" fill="#263A41"/>
<path d="M388.327 206.979C388.335 209.585 381.645 214.749 374.207 214.77C366.768 214.791 359.773 207.474 359.765 204.868C359.758 202.262 366.741 205.354 374.18 205.333C381.619 205.312 388.32 204.373 388.327 206.979Z" fill="white"/>
<path opacity="0.4" d="M383.335 196.009C403.838 196.009 420.459 179.373 420.459 158.851C420.459 138.33 403.838 121.693 383.335 121.693C362.832 121.693 346.212 138.33 346.212 158.851C346.212 179.373 362.832 196.009 383.335 196.009Z" fill="#263A41"/>
<path d="M138.587 144.995C153.279 144.995 165.189 133.074 165.189 118.369C165.189 103.664 153.279 91.7428 138.587 91.7428C123.896 91.7428 111.986 103.664 111.986 118.369C111.986 133.074 123.896 144.995 138.587 144.995Z" fill="#263A41"/>
<path d="M130.892 138.211L122.94 136.77L120.361 151.031L128.313 152.472L130.892 138.211Z" fill="#263A41"/>
<path d="M146.797 141.093L138.845 139.652L136.265 153.913L144.218 155.354L146.797 141.093Z" fill="#263A41"/>
<path d="M146.767 160.782C147.669 159.717 146.099 156.903 143.26 154.497C140.422 152.091 137.39 151.004 136.489 152.069C135.588 153.135 137.158 155.949 139.996 158.355C142.834 160.761 145.866 161.848 146.767 160.782Z" fill="#263A41"/>
<path d="M131.194 157.96C132.096 156.895 130.526 154.081 127.687 151.675C124.849 149.269 121.817 148.182 120.916 149.248C120.015 150.313 121.585 153.127 124.423 155.533C127.261 157.939 130.293 159.026 131.194 157.96Z" fill="#263A41"/>
<path d="M140.45 120.956C145.471 120.956 149.541 116.882 149.541 111.856C149.541 106.83 145.471 102.756 140.45 102.756C135.429 102.756 131.358 106.83 131.358 111.856C131.358 116.882 135.429 120.956 140.45 120.956Z" fill="white"/>
<path d="M144.186 111.628C145.86 111.628 147.217 110.269 147.217 108.594C147.217 106.919 145.86 105.561 144.186 105.561C142.513 105.561 141.156 106.919 141.156 108.594C141.156 110.269 142.513 111.628 144.186 111.628Z" fill="#0E1F26"/>
<path d="M117.603 89.4025C117.203 79.5451 125.69 71.1958 136.561 70.7539C147.431 70.3119 156.567 77.9446 156.967 87.802C157.367 97.6594 149.811 99.8991 138.941 100.341C128.071 100.783 118.003 99.2599 117.603 89.4025Z" fill="#263A41"/>
<path d="M164.083 117.592C171.243 115.949 176.63 112.794 176.115 110.544C175.599 108.294 169.377 107.802 162.217 109.444C155.057 111.087 149.67 114.243 150.186 116.493C150.701 118.742 156.923 119.235 164.083 117.592Z" fill="#263A41"/>
<path d="M111.865 126.284C119.026 124.641 124.412 121.485 123.897 119.236C123.382 116.986 117.16 116.494 110 118.136C102.84 119.779 97.4528 122.935 97.9681 125.184C98.4833 127.434 104.705 127.926 111.865 126.284Z" fill="#263A41"/>
<path d="M131.281 128.862C130.995 130.445 131.349 132.078 132.265 133.4C133.181 134.722 134.584 135.626 136.166 135.912C137.748 136.199 139.378 135.845 140.699 134.928C142.02 134.011 142.923 132.607 143.21 131.023C143.806 127.726 141.259 126.56 137.965 125.963C134.671 125.366 131.878 125.565 131.281 128.862Z" fill="white"/>
<path d="M201.223 96.7401L177.355 89.5778L170.973 110.885L194.841 118.048L201.223 96.7401Z" fill="#0E1F26"/>
<path d="M179.824 113.444L179.511 113.343C179.622 112.996 182.283 104.829 186.199 103.526L186.303 103.839C182.545 105.089 179.851 113.36 179.824 113.444Z" fill="#263A41"/>
<path d="M188.367 103.991C189.275 103.991 190.011 103.255 190.011 102.346C190.011 101.437 189.275 100.701 188.367 100.701C187.46 100.701 186.724 101.437 186.724 102.346C186.724 103.255 187.46 103.991 188.367 103.991Z" fill="#263A41"/>
<path d="M186.382 107.815C185.486 107.827 184.603 107.603 183.82 107.165C184.556 106.647 185.425 106.352 186.324 106.317C187.223 106.282 188.112 106.507 188.886 106.967C188.14 107.464 187.277 107.757 186.382 107.815Z" fill="#263A41"/>
<g clip-path="url(#clip0_163_3)">
<path d="M417.329 89.8042L412.093 21.5883L474.621 21.7253L469.085 89.8042L443.593 97.6734L417.329 89.8042Z" fill="#8C6235"/>
<path d="M443.593 91.0852V28.0848L469.343 28.1762L464.751 84.5423L443.593 91.0852Z" fill="#403325"/>
<path d="M462.262 43.8237L462.991 35.4966H423.38L425.568 61.0264H452.906L451.834 71.9151L443.079 74.431L434.195 71.6861L433.723 65.1894H425.869L426.942 78.4575L443.078 83.2613L459.343 78.4575L461.532 52.5621H432.822L432.006 43.8237H462.262Z" fill="white"/>
</g>
<g clip-path="url(#clip1_163_3)">
<path d="M5.25675 124.231L0.0129395 56.0161L62.6377 56.1532L57.0929 124.231L31.5617 132.1L5.25675 124.231Z" fill="#517D8C"/>
<path d="M31.5616 125.512V62.5128L57.3509 62.6042L52.752 118.97L31.5616 125.512Z" fill="#263A41"/>
<path d="M50.9465 70.5653H11.2743L12.349 78.8H31.1748L12.65 87.2642L13.7242 95.2248H41.018L40.0291 106.342L30.788 108.264L22.4068 105.976L21.7619 99.6625H14.0682L15.0995 112.794L31.6046 117.689L47.4224 112.336L49.4425 86.6691H32.7217L50.946 78.6172L50.9465 70.5653Z" fill="white"/>
</g>
<g clip-path="url(#clip2_163_3)">
<path d="M43.8729 265.06H115.273V336.46H43.8729V265.06Z" fill="#8C7943"/>
<path d="M109.429 319.431C108.907 316.174 106.782 313.438 100.491 310.886C98.3053 309.882 95.8687 309.163 95.1425 307.506C94.8846 306.543 94.8506 306 95.0135 305.416C95.4818 303.522 97.7419 302.932 99.5337 303.475C100.688 303.862 101.78 304.751 102.439 306.169C105.52 304.174 105.513 304.188 107.665 302.817C106.877 301.595 106.457 301.032 105.941 300.509C104.088 298.439 101.563 297.373 97.5247 297.455C96.8257 297.543 96.1199 297.638 95.4207 297.726C93.4051 298.235 91.4843 299.294 90.3576 300.713C86.9776 304.547 87.9414 311.26 92.0544 314.022C96.1062 317.063 102.058 317.755 102.819 320.599C103.558 324.081 100.26 325.207 96.9818 324.807C94.5656 324.305 93.2218 323.076 91.7693 320.843C89.0953 322.391 89.0953 322.391 86.3465 323.972C86.9981 325.397 87.6835 326.042 88.7763 327.277C93.948 332.524 106.891 332.266 109.212 324.325C109.307 324.053 109.932 322.234 109.429 319.431ZM82.6882 297.876H76.0097C76.0097 303.645 75.9827 309.373 75.9827 315.142C75.9827 318.814 76.1727 322.18 75.5754 323.212C74.5981 325.241 72.0665 324.99 70.9127 324.596C69.7386 324.019 69.1413 323.198 68.449 322.038C68.259 321.705 68.1165 321.447 68.0689 321.427C66.2568 322.533 64.4514 323.646 62.6392 324.752C63.542 326.605 64.8722 328.214 66.5757 329.259C69.1209 330.786 72.5416 331.254 76.1184 330.433C78.4464 329.754 80.4553 328.35 81.5073 326.212C83.0276 323.409 82.7018 320.015 82.6882 316.262C82.7221 310.14 82.6882 304.018 82.6882 297.876Z" fill="white"/>
</g>
<g clip-path="url(#clip3_163_3)">
<path d="M306.221 323.207C306.221 318.463 300.28 313.968 291.173 311.18C293.274 301.896 292.34 294.51 288.224 292.145C287.275 291.591 286.166 291.328 284.955 291.328V294.583C285.626 294.583 286.166 294.714 286.619 294.962C288.604 296.101 289.465 300.436 288.793 306.012C288.633 307.384 288.37 308.829 288.049 310.304C285.188 309.603 282.065 309.063 278.781 308.713C276.81 306.012 274.767 303.56 272.709 301.414C277.467 296.991 281.933 294.568 284.969 294.568V291.313C280.955 291.313 275.701 294.174 270.388 299.137C265.075 294.203 259.82 291.372 255.806 291.372V294.627C258.828 294.627 263.309 297.035 268.067 301.429C266.024 303.575 263.98 306.012 262.039 308.713C258.74 309.063 255.617 309.603 252.756 310.318C252.42 308.859 252.172 307.443 251.997 306.085C251.311 300.509 252.157 296.174 254.128 295.021C254.566 294.758 255.135 294.641 255.806 294.641V291.386C254.58 291.386 253.471 291.649 252.508 292.204C248.406 294.568 247.487 301.94 249.603 311.194C240.524 313.997 234.613 318.478 234.613 323.207C234.613 327.951 240.554 332.447 249.661 335.235C247.56 344.519 248.494 351.905 252.61 354.269C253.559 354.824 254.668 355.087 255.894 355.087C259.908 355.087 265.162 352.226 270.475 347.263C275.788 352.197 281.043 355.028 285.057 355.028C286.283 355.028 287.392 354.766 288.356 354.211C292.457 351.846 293.377 344.475 291.26 335.221C300.31 332.433 306.221 327.937 306.221 323.207ZM287.217 313.471C286.677 315.354 286.006 317.296 285.247 319.237C284.648 318.069 284.021 316.902 283.334 315.734C282.663 314.566 281.948 313.427 281.233 312.318C283.305 312.625 285.305 313.004 287.217 313.471ZM280.532 329.017C279.394 330.987 278.226 332.856 277.014 334.593C274.84 334.783 272.636 334.885 270.417 334.885C268.213 334.885 266.009 334.783 263.849 334.607C262.637 332.87 261.455 331.017 260.317 329.061C259.207 327.149 258.2 325.207 257.281 323.251C258.186 321.295 259.207 319.339 260.302 317.427C261.44 315.456 262.608 313.588 263.82 311.851C265.994 311.661 268.198 311.559 270.417 311.559C272.621 311.559 274.825 311.661 276.985 311.836C278.197 313.573 279.379 315.427 280.517 317.383C281.627 319.295 282.634 321.237 283.553 323.193C282.634 325.149 281.627 327.105 280.532 329.017ZM285.247 327.119C286.035 329.075 286.706 331.031 287.261 332.929C285.349 333.396 283.334 333.79 281.247 334.097C281.962 332.973 282.678 331.819 283.349 330.637C284.021 329.469 284.648 328.287 285.247 327.119ZM270.446 342.694C269.089 341.293 267.731 339.731 266.388 338.023C267.702 338.082 269.045 338.125 270.402 338.125C271.774 338.125 273.132 338.096 274.46 338.023C273.146 339.731 271.789 341.293 270.446 342.694ZM259.587 334.097C257.514 333.79 255.514 333.411 253.602 332.943C254.142 331.06 254.814 329.119 255.573 327.178C256.171 328.345 256.799 329.513 257.485 330.681C258.171 331.849 258.872 332.987 259.587 334.097ZM270.373 303.721C271.731 305.122 273.088 306.684 274.431 308.392C273.117 308.333 271.774 308.289 270.417 308.289C269.045 308.289 267.688 308.319 266.359 308.392C267.673 306.684 269.03 305.122 270.373 303.721ZM259.572 312.318C258.857 313.442 258.142 314.595 257.47 315.778C256.799 316.945 256.171 318.113 255.573 319.281C254.785 317.325 254.113 315.369 253.559 313.471C255.471 313.019 257.485 312.625 259.572 312.318ZM246.363 330.593C241.196 328.389 237.853 325.499 237.853 323.207C237.853 320.916 241.196 318.011 246.363 315.821C247.618 315.281 248.99 314.8 250.406 314.347C251.238 317.208 252.333 320.186 253.69 323.237C252.347 326.273 251.267 329.236 250.45 332.082C249.005 331.63 247.633 331.133 246.363 330.593ZM254.215 351.452C252.23 350.314 251.369 345.978 252.041 340.402C252.201 339.03 252.464 337.585 252.785 336.111C255.646 336.812 258.769 337.352 262.053 337.702C264.024 340.402 266.067 342.855 268.125 345C263.367 349.423 258.901 351.846 255.865 351.846C255.208 351.832 254.653 351.7 254.215 351.452ZM288.837 340.329C289.523 345.905 288.677 350.241 286.706 351.394C286.268 351.657 285.699 351.773 285.028 351.773C282.006 351.773 277.525 349.365 272.767 344.971C274.81 342.826 276.854 340.388 278.795 337.687C282.094 337.337 285.217 336.797 288.078 336.082C288.414 337.556 288.677 338.972 288.837 340.329ZM294.457 330.593C293.201 331.133 291.829 331.615 290.414 332.068C289.582 329.207 288.487 326.229 287.129 323.178C288.472 320.142 289.552 317.179 290.37 314.332C291.815 314.785 293.187 315.281 294.471 315.821C299.638 318.025 302.981 320.916 302.981 323.207C302.966 325.499 299.624 328.404 294.457 330.593Z" fill="#43798C"/>
<path d="M270.402 329.878C274.086 329.878 277.073 326.892 277.073 323.207C277.073 319.523 274.086 316.537 270.402 316.537C266.718 316.537 263.732 319.523 263.732 323.207C263.732 326.892 266.718 329.878 270.402 329.878Z" fill="#43798C"/>
</g>
<g clip-path="url(#clip4_163_3)">
<path d="M454.436 359.068C462.042 359.068 468.214 352.553 468.214 344.527V329.986H454.436C446.831 329.986 440.658 336.5 440.658 344.527C440.658 352.553 446.831 359.068 454.436 359.068Z" fill="#263A41"/>
<path d="M440.658 315.445C440.658 307.418 446.831 300.904 454.436 300.904H468.214V329.986H454.436C446.831 329.986 440.658 323.471 440.658 315.445Z" fill="#3F3D56"/>
<path d="M440.658 286.363C440.658 278.336 446.831 271.822 454.436 271.822H468.214V300.904H454.436C446.831 300.904 440.658 294.389 440.658 286.363Z" fill="#FF6584"/>
<path d="M468.214 271.822H481.992C489.598 271.822 495.77 278.336 495.77 286.363C495.77 294.389 489.598 300.904 481.992 300.904H468.214V271.822Z" fill="#FFB6B6"/>
<path d="M495.77 315.445C495.77 323.471 489.598 329.986 481.992 329.986C474.387 329.986 468.214 323.471 468.214 315.445C468.214 307.418 474.387 300.904 481.992 300.904C489.598 300.904 495.77 307.418 495.77 315.445Z" fill="white"/>
</g>
<defs>
<clipPath id="clip0_163_3">
<rect width="62.5284" height="76.3402" fill="white" transform="translate(412.093 21.4607)"/>
</clipPath>
<clipPath id="clip1_163_3">
<rect width="62.6248" height="76.3402" fill="white" transform="translate(0.0129395 55.8881)"/>
</clipPath>
<clipPath id="clip2_163_3">
<rect width="71.4" height="71.4" fill="white" transform="translate(43.8729 265.06)"/>
</clipPath>
<clipPath id="clip3_163_3">
<rect width="71.6082" height="81.6" fill="white" transform="translate(234.613 282.4)"/>
</clipPath>
<clipPath id="clip4_163_3">
<rect width="55.1229" height="87.2459" fill="white" transform="translate(440.653 271.822)"/>
</clipPath>
</defs>
</svg>
