<svg width="47" height="43" viewBox="0 0 47 43" fill="none" xmlns="http://www.w3.org/2000/svg">
<path d="M44.2137 0.0736389H2.92856C2.24421 0.0736389 1.5879 0.322058 1.104 0.764246C0.620091 1.20643 0.348236 1.80617 0.348236 2.43152V40.1576C0.348236 40.783 0.620091 41.3827 1.104 41.8249C1.5879 42.2671 2.24421 42.5155 2.92856 42.5155H44.2137C44.8981 42.5155 45.5544 42.2671 46.0383 41.8249C46.5222 41.3827 46.794 40.783 46.794 40.1576V2.43152C46.794 1.80617 46.5222 1.20643 46.0383 0.764246C45.5544 0.322058 44.8981 0.0736389 44.2137 0.0736389ZM14.1246 36.2365H7.22996V15.9823H14.1246V36.2365ZM10.6773 13.2165C9.6179 13.2165 8.60193 12.8319 7.85284 12.1474C7.10376 11.4629 6.68293 10.5345 6.68293 9.56647C6.68293 8.59843 7.10376 7.67004 7.85284 6.98553C8.60193 6.30102 9.6179 5.91647 10.6773 5.91647C11.7366 5.91647 12.7526 6.30102 13.5017 6.98553C14.2508 7.67004 14.6716 8.59843 14.6716 9.56647C14.6716 10.5345 14.2508 11.4629 13.5017 12.1474C12.7526 12.8319 11.7366 13.2165 10.6773 13.2165ZM39.9252 36.2365H33.0383V26.3876C33.0383 24.0391 32.9919 21.0187 29.4569 21.0187C25.8702 21.0187 25.3258 23.5794 25.3258 26.2225V36.2388H18.444V15.9846H25.0497V18.7528H25.1451C26.0612 17.1612 28.3112 15.4824 31.6579 15.4824C38.6351 15.4824 39.9226 19.6747 39.9226 25.1308V36.2365H39.9252Z" fill="white"/>
</svg>
